<?xml version="1.0" encoding="utf-8"?>
<svg xmlns="http://www.w3.org/2000/svg" fill="none" height="32" viewBox="0 0 216 32" width="216">
<path d="M19.6094 9.76074H12.3984V22.7187H19.6094V9.76074Z" fill="#FF5F00"/>
<path d="M12.8569 16.241C12.8559 14.993 13.1389 13.761 13.6839 12.639C14.2289 11.517 15.0229 10.533 16.0049 9.76204C14.7889 8.80604 13.3289 8.21204 11.7919 8.04704C10.2549 7.88204 8.70187 8.15304 7.31087 8.82904C5.91987 9.50504 4.74788 10.558 3.92688 11.869C3.10588 13.18 2.67188 14.695 2.67188 16.241C2.67188 17.787 3.10688 19.302 3.92688 20.613C4.74688 21.924 5.91987 22.977 7.31087 23.653C8.70187 24.329 10.2549 24.6 11.7919 24.435C13.3289 24.27 14.7889 23.676 16.0049 22.72C15.0229 21.95 14.2299 20.966 13.6839 19.843C13.1379 18.72 12.8559 17.489 12.8569 16.241Z" fill="#EB001B"/>
<path d="M29.333 16.241C29.333 17.787 28.898 19.302 28.078 20.613C27.258 21.924 26.085 22.977 24.694 23.653C23.303 24.329 21.75 24.6 20.213 24.435C18.676 24.27 17.216 23.676 16 22.72C16.981 21.949 17.774 20.965 18.319 19.843C18.864 18.721 19.148 17.489 19.148 16.241C19.148 14.993 18.865 13.762 18.319 12.639C17.774 11.517 16.981 10.533 16 9.76204C17.216 8.80604 18.676 8.21204 20.213 8.04704C21.75 7.88204 23.303 8.15304 24.694 8.82904C26.085 9.50504 27.257 10.558 28.078 11.869C28.899 13.18 29.333 14.695 29.333 16.241Z" fill="#F79E1B"/>
<path d="M28.5478 21.3473V21.0823H28.6548V21.0283H28.3828V21.0823H28.4898V21.3473H28.5478ZM29.0768 21.3473V21.0273H28.9928L28.8968 21.2473L28.8008 21.0273H28.7168V21.3473H28.7758V21.1063L28.8658 21.3143H28.9268L29.0168 21.1053V21.3473H29.0768Z" fill="#F79E1B"/>
<path d="M58.3386 25.3217L58.6856 23.1197L57.9136 23.1017H54.2266L56.7886 6.85571C56.7966 6.80671 56.8226 6.76071 56.8606 6.72871C56.8986 6.69671 56.9466 6.67871 56.9976 6.67871H63.2146C65.2786 6.67871 66.7026 7.10771 67.4466 7.95571C67.7956 8.35371 68.0176 8.76871 68.1246 9.22671C68.2376 9.70671 68.2396 10.2797 68.1296 10.9787L68.1216 11.0297V11.4777L68.4706 11.6747C68.7646 11.8307 68.9976 12.0087 69.1766 12.2127C69.4746 12.5527 69.6676 12.9847 69.7496 13.4967C69.8336 14.0237 69.8056 14.6507 69.6686 15.3607C69.5096 16.1777 69.2526 16.8887 68.9046 17.4707C68.5856 18.0067 68.1786 18.4517 67.6946 18.7967C67.2336 19.1237 66.6856 19.3727 66.0656 19.5317C65.4656 19.6877 64.7806 19.7667 64.0296 19.7667H63.5456C63.1996 19.7667 62.8636 19.8917 62.5996 20.1147C62.3356 20.3427 62.1606 20.6547 62.1066 20.9947L62.0706 21.1927L61.4586 25.0727L61.4306 25.2147C61.4236 25.2597 61.4106 25.2827 61.3926 25.2977C61.3756 25.3117 61.3526 25.3207 61.3286 25.3207H58.3416L58.3386 25.3217Z" fill="#253B80"/>
<path d="M68.7997 11.0811C68.7807 11.2001 68.7597 11.3211 68.7357 11.4461C67.9157 15.6551 65.1107 17.1091 61.5287 17.1091H59.7047C59.2667 17.1091 58.8977 17.4271 58.8287 17.8591L57.8947 23.7811L57.6307 25.4601C57.5867 25.7441 57.8047 25.9991 58.0917 25.9991H61.3267C61.7097 25.9991 62.0357 25.7211 62.0957 25.3431L62.1277 25.1791L62.7367 21.3141L62.7757 21.1021C62.8357 20.7231 63.1617 20.4451 63.5447 20.4451H64.0287C67.1627 20.4451 69.6167 19.1721 70.3337 15.4901C70.6337 13.9521 70.4787 12.6671 69.6857 11.7641C69.4457 11.4921 69.1477 11.2661 68.8007 11.0811H68.7997Z" fill="#179BD7"/>
<path d="M67.9411 10.7393C67.8161 10.7033 67.6871 10.6693 67.5541 10.6403C67.4211 10.6113 67.2841 10.5853 67.1441 10.5623C66.6521 10.4823 66.1131 10.4453 65.5361 10.4453H60.6631C60.5431 10.4453 60.4291 10.4723 60.3271 10.5213C60.1021 10.6293 59.9351 10.8423 59.8951 11.1023L58.8581 17.6673L58.8281 17.8593C58.8961 17.4273 59.2651 17.1093 59.7031 17.1093H61.5271C65.1091 17.1093 67.9141 15.6543 68.7341 11.4463C68.7591 11.3213 68.7791 11.2003 68.7981 11.0813C68.5911 10.9713 68.3661 10.8773 68.1241 10.7973C68.0641 10.7773 68.0041 10.7583 67.9411 10.7393Z" fill="#222D65"/>
<path d="M59.8951 11.103C59.9351 10.843 60.1021 10.63 60.3271 10.522C60.4301 10.473 60.5431 10.446 60.6631 10.446H65.5361C66.1131 10.446 66.6521 10.484 67.1441 10.563C67.2851 10.586 67.4211 10.611 67.5541 10.641C67.6871 10.671 67.8161 10.704 67.9411 10.74C68.0031 10.759 68.0651 10.778 68.1251 10.797C68.3671 10.877 68.5921 10.972 68.7991 11.081C69.0431 9.52602 68.7971 8.46602 67.9561 7.50702C67.0291 6.45102 65.3551 5.99902 63.2141 5.99902H56.9971C56.5601 5.99902 56.1861 6.31702 56.1191 6.75002L53.5301 23.163C53.4791 23.488 53.7291 23.781 54.0571 23.781H57.8951L58.8591 17.667L59.8961 11.102L59.8951 11.103Z" fill="#253B80"/>
<g clip-path="url(#clip0_2969_8648)">
<path d="M107.845 10.9945L105.707 20.9895H103.121L105.259 10.9945H107.845ZM118.724 17.4485L120.085 13.6955L120.868 17.4485H118.724ZM121.61 20.9895H124.001L121.912 10.9945H119.706C119.209 10.9945 118.79 11.2825 118.604 11.7275L114.724 20.9895H117.44L117.979 19.4965H121.296L121.61 20.9895ZM114.86 17.7265C114.871 15.0885 111.213 14.9425 111.238 13.7635C111.246 13.4055 111.588 13.0235 112.334 12.9265C112.704 12.8785 113.726 12.8405 114.884 13.3735L115.337 11.2535C114.715 11.0285 113.914 10.8115 112.918 10.8115C110.362 10.8115 108.564 12.1695 108.549 14.1155C108.533 15.5545 109.834 16.3565 110.812 16.8365C111.82 17.3265 112.158 17.6405 112.153 18.0785C112.146 18.7495 111.349 19.0465 110.607 19.0575C109.306 19.0775 108.552 18.7055 107.951 18.4255L107.482 20.6165C108.087 20.8935 109.202 21.1345 110.357 21.1465C113.075 21.1465 114.851 19.8045 114.86 17.7265ZM104.15 10.9945L99.96 20.9895H97.227L95.165 13.0125C95.04 12.5215 94.931 12.3415 94.551 12.1345C93.929 11.7965 92.903 11.4805 92 11.2845L92.061 10.9945H96.461C97.021 10.9945 97.526 11.3675 97.654 12.0135L98.743 17.7975L101.433 10.9945H104.15Z" fill="#1434CB"/>
</g>
<path d="M166.625 17.8516H166.647L168.49 13.2256H169.786L165.804 22.501H164.574L166.055 19.2559L163.442 13.2256H164.737L166.625 17.8516ZM160.395 13.0146C161.275 13.0147 161.971 13.2546 162.481 13.7275C162.992 14.2007 163.244 14.8617 163.244 15.6953V19.668H162.104V18.7744H162.053C161.557 19.5104 160.905 19.8789 160.083 19.8789C159.387 19.8788 158.795 19.6684 158.329 19.248C157.87 18.8576 157.611 18.2791 157.626 17.6709C157.626 17.0025 157.877 16.4762 158.373 16.0781C158.869 15.6802 159.535 15.4854 160.364 15.4854C161.075 15.4854 161.652 15.6207 162.111 15.876V15.5977C162.111 15.1846 161.934 14.7938 161.623 14.5234C161.305 14.2382 160.897 14.0811 160.476 14.0811C159.81 14.0811 159.284 14.3661 158.899 14.9365L157.848 14.2686C158.41 13.4349 159.262 13.0146 160.395 13.0146ZM154.739 10.252C155.502 10.2371 156.242 10.5297 156.782 11.0703C157.863 12.0917 157.929 13.8121 156.915 14.916L156.782 15.0508C156.227 15.5839 155.546 15.8544 154.739 15.8545H152.77V19.6699H151.578V10.252H154.739ZM160.55 16.4619C160.069 16.4619 159.661 16.5816 159.335 16.8145C159.017 17.0472 158.854 17.3405 158.854 17.6934C158.855 18.0085 159.002 18.3012 159.246 18.4814C159.513 18.6917 159.839 18.8044 160.172 18.7969C160.675 18.7969 161.156 18.5939 161.512 18.2334C161.904 17.8579 162.104 17.415 162.104 16.9043C161.734 16.6039 161.216 16.4544 160.55 16.4619ZM152.767 14.6973H154.766C155.21 14.7122 155.639 14.5318 155.942 14.209C156.564 13.5556 156.549 12.5039 155.905 11.873C155.602 11.5729 155.195 11.4083 154.766 11.4082H152.767V14.6973Z" fill="#3C4043"/>
<path d="M148.67 15.0262C148.67 14.6582 148.64 14.2902 148.581 13.9297H143.555V16.01H146.434C146.316 16.6784 145.931 17.2792 145.368 17.6547V19.0066H147.086C148.092 18.0678 148.67 16.6784 148.67 15.0262Z" fill="#4285F4"/>
<path d="M143.549 20.3143C144.985 20.3143 146.199 19.8336 147.08 19.0075L145.363 17.6557C144.881 17.9861 144.267 18.1739 143.549 18.1739C142.157 18.1739 140.98 17.2201 140.558 15.9434H138.789V17.3403C139.692 19.1652 141.535 20.3143 143.549 20.3143Z" fill="#34A853"/>
<path d="M140.56 15.9436C140.338 15.2752 140.338 14.5467 140.56 13.8708V12.4814H138.791C138.028 14.006 138.028 15.8085 138.791 17.333L140.56 15.9436Z" fill="#FBBC04"/>
<path d="M143.549 11.6398C144.311 11.6247 145.044 11.9176 145.592 12.4509L147.117 10.9038C146.147 9.98751 144.874 9.48433 143.549 9.49935C141.535 9.49935 139.692 10.6559 138.789 12.4809L140.558 13.8778C140.98 12.5936 142.157 11.6398 143.549 11.6398Z" fill="#EA4335"/>
<g clip-path="url(#clip1_2969_8648)">
<path d="M189.848 11.1315C189.473 11.5755 188.873 11.9255 188.273 11.8755C188.198 11.2755 188.492 10.6375 188.836 10.2445C189.211 9.78848 189.867 9.46348 190.399 9.43848C190.462 10.0635 190.218 10.6765 189.849 11.1325L189.848 11.1315ZM190.392 11.9945C189.523 11.9445 188.779 12.4885 188.367 12.4885C187.948 12.4885 187.317 12.0195 186.629 12.0325C185.735 12.0455 184.904 12.5515 184.447 13.3575C183.509 14.9705 184.203 17.3575 185.11 18.6705C185.554 19.3205 186.085 20.0335 186.785 20.0085C187.448 19.9835 187.71 19.5775 188.51 19.5775C189.316 19.5775 189.548 20.0085 190.248 19.9965C190.973 19.9845 191.429 19.3465 191.873 18.6965C192.379 17.9585 192.586 17.2405 192.598 17.2025C192.585 17.1905 191.198 16.6585 191.185 15.0585C191.172 13.7205 192.279 13.0835 192.329 13.0455C191.704 12.1205 190.729 12.0205 190.391 11.9955L190.392 11.9945ZM195.411 10.1815V19.9265H196.924V16.5945H199.018C200.931 16.5945 202.275 15.2815 202.275 13.3815C202.275 11.4815 200.956 10.1815 199.068 10.1815H195.411ZM196.924 11.4565H198.668C199.981 11.4565 200.731 12.1565 200.731 13.3875C200.731 14.6185 199.981 15.3255 198.662 15.3255H196.924V11.4565ZM205.037 20.0015C205.987 20.0015 206.868 19.5205 207.268 18.7575H207.299V19.9265H208.699V15.0755C208.699 13.6695 207.574 12.7625 205.842 12.7625C204.236 12.7625 203.048 13.6815 203.004 14.9445H204.367C204.48 14.3445 205.036 13.9505 205.798 13.9505C206.723 13.9505 207.242 14.3815 207.242 15.1755V15.7135L205.354 15.8265C203.598 15.9325 202.647 16.6515 202.647 17.9015C202.647 19.1645 203.628 20.0015 205.035 20.0015H205.037ZM205.444 18.8455C204.638 18.8455 204.125 18.4575 204.125 17.8645C204.125 17.2515 204.619 16.8955 205.563 16.8395L207.244 16.7335V17.2835C207.244 18.1965 206.469 18.8465 205.444 18.8465V18.8455ZM210.569 22.5775C212.044 22.5775 212.738 22.0145 213.344 20.3085L216.001 12.8575H214.463L212.682 18.6145H212.651L210.87 12.8575H209.289L211.852 19.9525L211.714 20.3835C211.483 21.1145 211.108 21.3965 210.439 21.3965C210.32 21.3965 210.089 21.3835 209.995 21.3715V22.5405C210.083 22.5655 210.458 22.5785 210.57 22.5785L210.569 22.5775Z" fill="black"/>
</g>
<defs>
<clipPath id="clip0_2969_8648">
<rect fill="white" height="32" transform="translate(92)" width="32"/>
</clipPath>
<clipPath id="clip1_2969_8648">
<rect fill="white" height="32" transform="translate(184)" width="32"/>
</clipPath>
</defs>
</svg>