<svg fill="none" height="91" viewBox="0 0 205 91" width="205" xmlns="http://www.w3.org/2000/svg" xmlns:xlink="http://www.w3.org/1999/xlink"><linearGradient id="a" gradientUnits="userSpaceOnUse" x1="21.9807" x2="21.9807" y1="0" y2="82.639"><stop offset="0" stop-color="#e0c374"/><stop offset="1" stop-color="#b68d33"/></linearGradient><clipPath id="b"><path d="m0 0h60v91h-60z"/></clipPath><g fill="#fff"><path d="m201.331 65.5039c-.032.304-.056.6-.072.888-.008.28-.012.496-.012.648s.004.296.012.432.016.248.024.336h-.276c-.056-.512-.144-.916-.264-1.212-.112-.296-.284-.504-.516-.624-.224-.128-.54-.192-.948-.192h-.828c-.256 0-.452.024-.588.072-.128.04-.216.128-.264.264-.048.128-.072.332-.072.612v6.048c0 .272.024.476.072.612s.136.228.264.276c.136.04.332.06.588.06h.78c.456 0 .816-.072 1.08-.216.272-.144.476-.38.612-.708.144-.328.252-.776.324-1.344h.276c-.024.232-.036.536-.036.912 0 .16.004.392.012.696.016.304.04.616.072.936-.408-.016-.868-.024-1.38-.024-.512-.008-.968-.012-1.368-.012-.184 0-.42 0-.708 0s-.6.004-.936.012c-.328 0-.664.004-1.008.012-.336 0-.66.004-.972.012v-.24c.272-.016.476-.048.612-.096s.224-.144.264-.288c.048-.144.072-.36.072-.648v-5.952c0-.296-.024-.512-.072-.648-.04-.144-.132-.24-.276-.288-.136-.056-.336-.088-.6-.096v-.24c.312.008.636.016.972.024.344 0 .68.004 1.008.012h.936.708 1.248c.472-.008.892-.02 1.26-.036zm-1.992 4.104v.12.12h-2.172s0-.04 0-.12 0-.12 0-.12zm.348-1.584c-.032.456-.048.804-.048 1.044.008.24.012.46.012.66s.004.42.012.66.028.588.06 1.044h-.276c-.04-.264-.092-.516-.156-.756-.064-.248-.18-.448-.348-.6-.16-.152-.412-.228-.756-.228v-.24c.256 0 .456-.052.6-.156.152-.104.268-.24.348-.408s.136-.34.168-.516c.04-.184.076-.352.108-.504z"/><path d="m193.787 65.5039v.24c-.272.008-.476.04-.612.096-.136.048-.228.144-.276.288-.04.136-.06.352-.06.648v5.952c0 .288.02.504.06.648.048.144.14.24.276.288s.34.08.612.096v.24c-.2-.016-.448-.024-.744-.024-.296-.008-.596-.012-.9-.012-.336 0-.652.004-.948.012-.296 0-.532.008-.708.024v-.24c.272-.016.476-.048.612-.096.144-.048.24-.144.288-.288s.072-.36.072-.648v-6.564l.06.024-2.952 7.86h-.192l-3.096-7.776v6.144c0 .336.024.6.072.792.048.184.152.316.312.396s.404.132.732.156v.24c-.152-.016-.348-.024-.588-.024-.232-.008-.452-.012-.66-.012-.2 0-.4.004-.6.012-.2 0-.364.008-.492.024v-.24c.264-.024.464-.072.6-.144.136-.08.228-.212.276-.396s.072-.436.072-.756v-5.688c0-.296-.024-.512-.072-.648-.048-.144-.14-.24-.276-.288-.136-.056-.336-.088-.6-.096v-.24c.128.008.292.016.492.024s.4.012.6.012c.232 0 .464-.004.696-.012.24-.008.444-.016.612-.024l2.652 6.816-.228.156 2.604-6.936h.324.336c.304 0 .604-.004.9-.012s.544-.016.744-.024z"/><path d="m182.288 65.5039c-.032.304-.056.6-.072.888-.008.28-.012.496-.012.648s.004.296.012.432.016.248.024.336h-.276c-.056-.512-.144-.916-.264-1.212-.112-.296-.284-.504-.516-.624-.224-.128-.54-.192-.948-.192h-.828c-.256 0-.452.024-.588.072-.128.04-.216.128-.264.264-.048.128-.072.332-.072.612v6.048c0 .272.024.476.072.612s.136.228.264.276c.136.04.332.06.588.06h.78c.456 0 .816-.072 1.08-.216.272-.144.476-.38.612-.708.144-.328.252-.776.324-1.344h.276c-.024.232-.036.536-.036.912 0 .16.004.392.012.696.016.304.04.616.072.936-.408-.016-.868-.024-1.38-.024-.512-.008-.968-.012-1.368-.012-.184 0-.42 0-.708 0s-.6.004-.936.012c-.328 0-.664.004-1.008.012-.336 0-.66.004-.972.012v-.24c.272-.016.476-.048.612-.096s.224-.144.264-.288c.048-.144.072-.36.072-.648v-5.952c0-.296-.024-.512-.072-.648-.04-.144-.132-.24-.276-.288-.136-.056-.336-.088-.6-.096v-.24c.312.008.636.016.972.024.344 0 .68.004 1.008.012h.936.708 1.248c.472-.008.892-.02 1.26-.036zm-1.992 4.104v.12.12h-2.172s0-.04 0-.12 0-.12 0-.12zm.348-1.584c-.032.456-.048.804-.048 1.044.008.24.012.46.012.66s.004.42.012.66.028.588.06 1.044h-.276c-.04-.264-.092-.516-.156-.756-.064-.248-.18-.448-.348-.6-.16-.152-.412-.228-.756-.228v-.24c.256 0 .456-.052.6-.156.152-.104.268-.24.348-.408s.136-.34.168-.516c.04-.184.076-.352.108-.504z"/><path d="m171.458 73.9999v-.24c.272-.016.476-.048.612-.096s.224-.144.264-.288c.048-.144.072-.36.072-.648v-5.952c0-.296-.024-.512-.072-.648-.04-.144-.132-.24-.276-.288-.136-.056-.336-.088-.6-.096v-.24c.2.008.448.016.744.024.304.008.604.012.9.012.336 0 .648-.004.936-.012s.52-.016.696-.024v.24c-.264.008-.464.04-.6.096-.136.048-.228.144-.276.288-.048.136-.072.352-.072.648v5.952c0 .288.024.504.072.648s.14.24.276.288.336.08.6.096v.24c-.176-.016-.408-.024-.696-.024-.288-.008-.6-.012-.936-.012-.296 0-.596.004-.9.012-.296 0-.544.008-.744.024zm-5.04 0v-.24c.272-.016.476-.048.612-.096s.224-.144.264-.288c.048-.144.072-.36.072-.648v-5.952c0-.296-.024-.512-.072-.648-.04-.144-.132-.24-.276-.288-.136-.056-.336-.088-.6-.096v-.24c.184.008.42.016.708.024.296.008.612.012.948.012.304 0 .6-.004.888-.012.296-.008.54-.016.732-.024v.24c-.264.008-.464.04-.6.096-.136.048-.228.144-.276.288-.048.136-.072.352-.072.648v5.952c0 .288.024.504.072.648s.14.24.276.288.336.08.6.096v.24c-.192-.016-.436-.024-.732-.024-.288-.008-.584-.012-.888-.012-.336 0-.652.004-.948.012-.288 0-.524.008-.708.024zm1.788-4.152v-.24h4.74v.24z"/><path d="m165.14 65.5039c-.032.336-.056.664-.072.984-.008.312-.012.552-.012.72 0 .184.004.36.012.528s.016.312.024.432h-.276c-.08-.6-.188-1.072-.324-1.416-.128-.344-.316-.592-.564-.744s-.604-.228-1.068-.228h-.516v6.84c0 .32.028.56.084.72.064.16.184.268.36.324.184.048.448.08.792.096v.24c-.224-.016-.512-.024-.864-.024-.352-.008-.712-.012-1.08-.012-.384 0-.748.004-1.092.012-.336 0-.608.008-.816.024v-.24c.344-.016.604-.048.78-.096.176-.056.296-.164.36-.324s.096-.4.096-.72v-6.84h-.528c-.448 0-.8.076-1.056.228s-.448.4-.576.744-.232.816-.312 1.416h-.276c.016-.12.024-.264.024-.432.008-.168.012-.344.012-.528 0-.168-.008-.408-.024-.72-.008-.32-.028-.648-.06-.984.344.008.72.016 1.128.024s.82.012 1.236.012h1.128 1.116c.408 0 .82-.004 1.236-.012s.792-.016 1.128-.024z"/><path d="m153.429 65.5039c-.032.304-.056.6-.072.888-.008.28-.012.496-.012.648s.004.296.012.432.016.248.024.336h-.276c-.056-.512-.144-.916-.264-1.212-.112-.296-.284-.504-.516-.624-.224-.128-.54-.192-.948-.192h-.828c-.256 0-.452.024-.588.072-.128.04-.216.128-.264.264-.048.128-.072.332-.072.612v6.048c0 .272.024.476.072.612s.136.228.264.276c.136.04.332.06.588.06h.78c.456 0 .816-.072 1.08-.216.272-.144.476-.38.612-.708.144-.328.252-.776.324-1.344h.276c-.024.232-.036.536-.036.912 0 .16.004.392.012.696.016.304.04.616.072.936-.408-.016-.868-.024-1.38-.024-.512-.008-.968-.012-1.368-.012-.184 0-.42 0-.708 0s-.6.004-.936.012c-.328 0-.664.004-1.008.012-.336 0-.66.004-.972.012v-.24c.272-.016.476-.048.612-.096s.224-.144.264-.288c.048-.144.072-.36.072-.648v-5.952c0-.296-.024-.512-.072-.648-.04-.144-.132-.24-.276-.288-.136-.056-.336-.088-.6-.096v-.24c.312.008.636.016.972.024.344 0 .68.004 1.008.012h.936.708 1.248c.472-.008.892-.02 1.26-.036zm-1.992 4.104v.12.12h-2.172s0-.04 0-.12 0-.12 0-.12zm.348-1.584c-.032.456-.048.804-.048 1.044.008.24.012.46.012.66s.004.42.012.66.028.588.06 1.044h-.276c-.04-.264-.092-.516-.156-.756-.064-.248-.18-.448-.348-.6-.16-.152-.412-.228-.756-.228v-.24c.256 0 .456-.052.6-.156.152-.104.268-.24.348-.408s.136-.34.168-.516c.04-.184.076-.352.108-.504z"/><path d="m142.87 65.3604c.424 0 .748.048.972.144s.42.1999.588.3119c.096.056.172.1.228.132.064.024.124.0361.18.0361.08 0 .136-.044.168-.132.04-.088.072-.22.096-.396h.276c-.008.144-.02.316-.036.516-.008.192-.016.4479-.024.7679v1.2601h-.276c-.024-.392-.112-.772-.264-1.14-.144-.368-.36-.6681-.648-.9-.28-.2321-.64-.348-1.08-.348-.408 0-.748.124-1.02.372-.264.24-.396.56-.396.96 0 .352.088.648.264.888.176.232.416.452.72.66.312.2.664.424 1.056.672.4.256.76.512 1.08.768.32.248.572.5239.756.8279s.276.672.276 1.104c0 .52-.124.9521-.372 1.2961-.24.336-.564.588-.972.756s-.856.252-1.344.252c-.448 0-.804-.0481-1.068-.1441s-.488-.196-.672-.3c-.176-.112-.312-.1679-.408-.1679-.08 0-.14.044-.18.132-.032.088-.06.22-.084.396h-.276c.016-.176.024-.38.024-.612.008-.24.012-.552.012-.936.008-.384.012-.868.012-1.452h.276c.032.496.12.96.264 1.392.152.432.38.78.684 1.044.312.256.724.384 1.236.384.272 0 .524-.052.756-.156s.42-.268.564-.492.216-.5121.216-.8641c0-.328-.08-.6159-.24-.8639-.152-.248-.368-.476-.648-.684-.272-.216-.592-.4361-.96-.6601-.376-.24-.728-.4799-1.056-.7199s-.592-.52-.792-.84c-.192-.32-.288-.7-.288-1.14 0-.488.112-.888.336-1.2.232-.312.528-.544.888-.696.368-.152.76-.228 1.176-.228z"/><path d="m134.679 65.3359c.784 0 1.472.172 2.064.516.6.344 1.064.84 1.392 1.488.328.64.492 1.42.492 2.34 0 .896-.168 1.68-.504 2.352s-.804 1.196-1.404 1.572-1.284.564-2.052.564c-.792 0-1.484-.172-2.076-.516s-1.052-.84-1.38-1.488-.492-1.428-.492-2.34c0-.896.168-1.68.504-2.352.344-.672.812-1.196 1.404-1.572s1.276-.564 2.052-.564zm-.048.216c-.496 0-.928.18-1.296.54s-.652.856-.852 1.488-.3 1.364-.3 2.196c0 .848.112 1.588.336 2.22.224.624.528 1.108.912 1.452.384.336.812.504 1.284.504.496 0 .924-.18 1.284-.54.368-.36.652-.856.852-1.488.208-.64.312-1.372.312-2.196 0-.856-.116-1.596-.348-2.22-.224-.624-.528-1.104-.912-1.44-.376-.344-.8-.516-1.272-.516z"/><path d="m122.863 65.5039c.184.008.42.016.708.024.296.008.588.012.876.012.384 0 .748-.004 1.092-.012.352-.008.6-.012.744-.012 1.016 0 1.776.22 2.28.66s.756 1.008.756 1.704c0 .288-.052.592-.156.912-.096.312-.268.604-.516.876-.248.264-.584.48-1.008.648s-.964.252-1.62.252h-1.176v-.24h1.056c.536 0 .944-.108 1.224-.324.288-.216.48-.5.576-.852.104-.352.156-.732.156-1.14 0-.76-.136-1.328-.408-1.704s-.744-.564-1.416-.564c-.344 0-.572.068-.684.204-.104.136-.156.412-.156.828v5.928c0 .296.032.52.096.672.064.144.184.24.36.288s.436.076.78.084v.252c-.216-.016-.496-.024-.84-.024-.344-.008-.7-.012-1.068-.012-.32 0-.628.004-.924.012-.288 0-.532.008-.732.024v-.24c.272-.016.476-.048.612-.096s.224-.144.264-.288c.048-.144.072-.36.072-.648v-5.952c0-.296-.024-.512-.072-.648-.04-.144-.132-.24-.276-.288-.136-.056-.336-.088-.6-.096z"/><path d="m114.426 65.5039c.184.008.42.016.708.024.296.008.588.012.876.012.384 0 .748-.004 1.092-.012.352-.008.6-.012.744-.012.68 0 1.244.088 1.692.264.456.176.792.424 1.008.744.224.312.336.672.336 1.08 0 .248-.052.512-.156.792-.096.272-.268.528-.516.768-.248.232-.584.424-1.008.576s-.964.228-1.62.228h-1.152v-.24h1.032c.536 0 .944-.088 1.224-.264.288-.184.48-.424.576-.72.104-.304.156-.64.156-1.008 0-.632-.136-1.12-.408-1.464-.272-.352-.744-.528-1.416-.528-.344 0-.572.068-.684.204-.104.136-.156.412-.156.828v5.952c0 .288.024.504.072.648s.14.24.276.288.336.08.6.096v.24c-.192-.016-.436-.024-.732-.024-.288-.008-.584-.012-.888-.012-.336 0-.652.004-.948.012-.288 0-.524.008-.708.024v-.24c.272-.016.476-.048.612-.096s.224-.144.264-.288c.048-.144.072-.36.072-.648v-5.952c0-.296-.024-.512-.072-.648-.04-.144-.132-.24-.276-.288-.136-.056-.336-.088-.6-.096zm2.028 4.26c.408.016.736.036.984.06.248.016.456.032.624.048s.324.036.468.06c.6.08 1.036.24 1.308.48.28.24.472.608.576 1.104l.3 1.224c.072.344.148.588.228.732.088.144.216.216.384.216.128-.008.232-.044.312-.108.088-.072.18-.168.276-.288l.168.132c-.184.248-.376.436-.576.564-.2.12-.468.18-.804.18-.344 0-.64-.088-.888-.264-.24-.184-.412-.528-.516-1.032l-.24-1.2c-.072-.344-.152-.64-.24-.888-.088-.256-.212-.456-.372-.6-.152-.144-.376-.216-.672-.216h-1.296z"/><path d="m113.195 65.5039v.24c-.264.016-.464.064-.6.144s-.228.212-.276.396c-.048.176-.072.428-.072.756v3.468c0 .544-.036 1.028-.108 1.452s-.2.788-.384 1.092c-.2.336-.496.608-.888.816-.384.2-.844.3-1.38.3-.384 0-.756-.044-1.116-.132s-.676-.256-.948-.504c-.24-.216-.428-.452-.564-.708s-.228-.564-.276-.924c-.048-.368-.072-.82-.072-1.356v-3.768c0-.296-.024-.512-.072-.648-.04-.144-.128-.24-.264-.288-.136-.056-.34-.088-.613-.096v-.24c.185.008.421.016.709.024.296.008.612.012.948.012.304 0 .604-.004.9-.012.304-.008.552-.016.744-.024v.24c-.272.008-.48.04-.624.096-.136.048-.228.144-.276.288-.048.136-.072.352-.072.648v4.152c0 .408.02.784.06 1.128.048.344.132.644.252.9.128.248.312.444.552.588.248.136.568.204.96.204.592 0 1.048-.132 1.368-.396.328-.272.556-.64.684-1.104.136-.472.204-1.008.204-1.608v-3.552c0-.344-.032-.608-.096-.792s-.176-.316-.336-.396c-.16-.088-.388-.14-.684-.156v-.24c.152.008.348.016.588.024s.46.012.66.012c.208 0 .408-.004.6-.012.2-.008.364-.016.492-.024z"/><path d="m98.0195 65.5039c.184.008.42.016.708.024.296.008.588.012.876.012.384 0 .7485-.004 1.0925-.012.352-.008.6-.012.744-.012 1.016 0 1.776.22 2.28.66s.756 1.008.756 1.704c0 .288-.052.592-.156.912-.096.312-.268.604-.516.876-.248.264-.584.48-1.008.648s-.964.252-1.62.252h-1.1765v-.24h1.0565c.536 0 .944-.108 1.224-.324.288-.216.48-.5.576-.852.104-.352.156-.732.156-1.14 0-.76-.136-1.328-.408-1.704s-.744-.564-1.416-.564c-.344 0-.572.068-.684.204-.104.136-.156.412-.156.828v5.928c0 .296.032.52.096.672.064.144.184.24.36.288s.436.076.78.084v.252c-.216-.016-.496-.024-.84-.024-.344-.008-.7-.012-1.0685-.012-.32 0-.628.004-.924.012-.288 0-.532.008-.732.024v-.24c.272-.016.476-.048.612-.096s.224-.144.264-.288c.048-.144.072-.36.072-.648v-5.952c0-.296-.024-.512-.072-.648-.04-.144-.132-.24-.276-.288-.136-.056-.336-.088-.6-.096z"/><path d="m90.343 65.5039v.24c-.272.008-.48.04-.624.096-.136.048-.228.144-.276.288-.048.136-.072.352-.072.648v6c0 .272.02.476.06.612.048.136.136.228.264.276.136.04.328.06.576.06h.78c.344 0 .632-.048.864-.144.24-.096.44-.24.6-.432s.284-.44.372-.744.156-.66.204-1.068h.276c-.024.256-.036.592-.036 1.008 0 .16.004.396.012.708.016.304.04.62.072.948-.408-.016-.868-.024-1.38-.024-.512-.008-.968-.012-1.368-.012-.184 0-.42 0-.708 0s-.6.004-.936.012c-.328 0-.664.004-1.008.012-.336 0-.66.004-.972.012v-.24c.272-.016.476-.048.612-.096s.224-.144.264-.288c.048-.144.072-.36.072-.648v-5.952c0-.296-.024-.512-.072-.648-.04-.144-.132-.24-.276-.288-.136-.056-.336-.088-.6-.096v-.24c.184.008.42.016.708.024.296.008.612.012.948.012.304 0 .604-.004.9-.012.304-.008.552-.016.744-.024z"/><path d="m82.7141 65.5039v.24c-.272.008-.48.04-.624.096-.136.048-.228.144-.276.288-.048.136-.072.352-.072.648v6c0 .272.02.476.06.612.048.136.136.228.264.276.136.04.328.06.576.06h.78c.344 0 .632-.048.864-.144.24-.096.44-.24.6-.432s.284-.44.372-.744.156-.66.204-1.068h.276c-.024.256-.036.592-.036 1.008 0 .16.004.396.012.708.016.304.04.62.072.948-.408-.016-.868-.024-1.38-.024-.512-.008-.968-.012-1.368-.012-.184 0-.42 0-.708 0s-.6.004-.936.012c-.328 0-.664.004-1.008.012-.336 0-.66.004-.972.012v-.24c.272-.016.476-.048.612-.096s.224-.144.264-.288c.048-.144.072-.36.072-.648v-5.952c0-.296-.024-.512-.072-.648-.04-.144-.132-.24-.276-.288-.136-.056-.336-.088-.6-.096v-.24c.184.008.42.016.708.024.296.008.612.012.948.012.304 0 .604-.004.9-.012.304-.008.552-.016.744-.024z"/><path d="m75.0549 65.4561 2.928 7.536c.112.296.24.496.384.6.152.104.292.16.42.168v.24c-.192-.016-.42-.024-.684-.024-.256-.008-.516-.012-.78-.012-.336 0-.648.004-.936.012-.288 0-.52.008-.696.024v-.24c.408-.016.664-.084.768-.204.112-.128.088-.396-.072-.804l-2.16-5.832.192-.216-1.992 5.208c-.144.36-.232.66-.264.9-.024.24-.004.428.06.564.072.136.192.232.36.288s.376.088.624.096v.24c-.24-.016-.484-.024-.732-.024-.24-.008-.468-.012-.684-.012-.192 0-.364.004-.516.012-.144 0-.276.008-.396.024v-.24c.168-.04.336-.14.504-.3s.328-.432.48-.816l2.784-7.188h.204zm1.26 5.088v.24h-3.576l.12-.24z"/><path d="m188.366 50.8753c.66 0 1.395-.39 2.205-1.17s1.635-1.845 2.475-3.195c.84-1.38 1.62-2.97 2.34-4.77s1.32-3.72 1.8-5.76l-.81 4.905c-1.02 2.85-2.07 5.145-3.15 6.885-1.05 1.71-2.13 2.955-3.24 3.735-1.11.75-2.25 1.125-3.42 1.125-1.5 0-2.625-.495-3.375-1.485-.75-1.02-1.125-2.355-1.125-4.005 0-1.5.24-3.105.72-4.815.51-1.71 1.2-3.405 2.07-5.085.9-1.68 1.92-3.195 3.06-4.545s2.37-2.43 3.69-3.24c1.32-.84 2.64-1.26 3.96-1.26 1.02 0 1.8.48 2.34 1.44.57.93.705 2.295.405 4.095l-.495.27c.21-1.41.12-2.535-.27-3.375-.36-.87-.96-1.305-1.8-1.305-.72 0-1.485.375-2.295 1.125-.81.72-1.605 1.725-2.385 3.015-.75 1.26-1.455 2.685-2.115 4.275-.63 1.59-1.125 3.24-1.485 4.95-.36 1.68-.54 3.33-.54 4.95 0 1.2.12 2.04.36 2.52.27.48.63.72 1.08.72zm10.755-22.05c.9-.03 1.77-.09 2.61-.18s1.62-.24 2.34-.45l-5.715 19.935c-.09.33-.18.705-.27 1.125-.06.39-.045.735.045 1.035.12.3.405.45.855.45.54 0 1.08-.285 1.62-.855.54-.6 1.08-1.725 1.62-3.375l.63-1.845h.855l-1.125 3.285c-.42 1.23-.93 2.175-1.53 2.835s-1.245 1.125-1.935 1.395c-.66.3-1.305.45-1.935.45-1.32 0-2.25-.42-2.79-1.26-.39-.66-.525-1.455-.405-2.385.15-.96.36-1.95.63-2.97z"/><path d="m176.237 20.8601c.12-.96.54-1.74 1.26-2.34s1.545-.9 2.475-.9c.87 0 1.545.285 2.025.855.51.54.705 1.215.585 2.025-.12.93-.555 1.71-1.305 2.34-.72.6-1.545.9-2.475.9-.87 0-1.545-.27-2.025-.81-.48-.57-.66-1.26-.54-2.07zm-1.485 11.79c.57-1.74.375-2.61-.585-2.61-.66 0-1.245.345-1.755 1.035-.51.66-1.035 1.725-1.575 3.195l-.72 1.89h-.855l1.17-3.33c.45-1.23.99-2.175 1.62-2.835s1.305-1.125 2.025-1.395c.75-.27 1.47-.405 2.16-.405.99 0 1.74.195 2.25.585s.825.9.945 1.53.12 1.32 0 2.07c-.12.72-.3 1.425-.54 2.115l-4.77 13.68c-.3.84-.39 1.485-.27 1.935s.435.675.945.675c.54 0 1.065-.285 1.575-.855.51-.6 1.08-1.725 1.71-3.375l.72-1.845h.855l-1.17 3.285c-.42 1.2-.945 2.13-1.575 2.79s-1.305 1.125-2.025 1.395c-.69.3-1.395.45-2.115.45-1.29 0-2.205-.285-2.745-.855-.51-.6-.735-1.395-.675-2.385.06-1.02.3-2.13.72-3.33z"/><path d="m147.487 51.9996h-4.725l8.91-30.015c.3-1.02.255-1.77-.135-2.25-.36-.48-1.275-.72-2.745-.72l.27-.945c1.83-.03 3.465-.195 4.905-.495 1.44-.33 2.775-.78 4.005-1.35zm1.215-6.615c1.17-3.24 2.265-5.97 3.285-8.19 1.05-2.22 2.07-3.99 3.06-5.31 1.02-1.32 2.055-2.265 3.105-2.835 1.08-.57 2.22-.855 3.42-.855 1.41 0 2.385.33 2.925.99.57.66.84 1.515.81 2.565s-.24 2.13-.63 3.24l-4.365 13.185c-.24.78-.33 1.41-.27 1.89s.375.72.945.72c.51 0 1.02-.285 1.53-.855.54-.57 1.11-1.695 1.71-3.375l.675-1.845h.855l-1.125 3.285c-.42 1.26-.945 2.22-1.575 2.88s-1.305 1.11-2.025 1.35c-.69.27-1.365.405-2.025.405-1.29 0-2.205-.285-2.745-.855s-.78-1.35-.72-2.34c.06-1.02.285-2.145.675-3.375l4.185-12.645c.18-.48.315-.99.405-1.53.12-.54.105-1.005-.045-1.395s-.54-.585-1.17-.585c-.69 0-1.44.36-2.25 1.08-.81.69-1.65 1.68-2.52 2.97s-1.725 2.82-2.565 4.59-1.65 3.735-2.43 5.895c-.78 2.13-1.5 4.395-2.16 6.795z"/><path d="m135.043 29.9496c-.72 0-1.53.495-2.43 1.485-.87.99-1.755 2.325-2.655 4.005s-1.755 3.585-2.565 5.715-1.485 4.335-2.025 6.615l.81-4.77c1.2-3.57 2.355-6.435 3.465-8.595s2.25-3.735 3.42-4.725 2.4-1.485 3.69-1.485c1.53 0 2.73.555 3.6 1.665.9 1.08 1.35 2.7 1.35 4.8601 0 1.3799-.195 2.8799-.585 4.5-.36 1.59-.915 3.18-1.665 4.77-.72 1.56-1.62 3-2.7 4.32s-2.31 2.3699-3.69 3.1499-2.925 1.1701-4.635 1.1701c-.9 0-1.725-.2401-2.475-.7201-.72-.48-1.23-1.155-1.53-2.025l.36-.855c.39.9.825 1.545 1.305 1.935.51.36 1.095.5401 1.755.5401.96 0 1.89-.375 2.79-1.125.9-.78 1.725-1.815 2.475-3.105.78-1.29 1.455-2.7151 2.025-4.2751.6-1.56 1.05-3.1349 1.35-4.7249s.45-3.0751.45-4.4551-.165-2.37-.495-2.97-.795-.9-1.395-.9zm-7.065-7.83c.9-.06 1.77-.15 2.61-.27s1.635-.315 2.385-.585l-9.855 34.515c-.39 1.35-.24 2.2501.45 2.7001.69.48 1.74.7199 3.15.7199l-.27.945c-.63-.03-1.53-.0749-2.7-.1349-1.17-.03-2.4-.0451-3.69-.0451-1.02 0-2.055.0151-3.105.0451-1.05.06-1.83.1049-2.34.1349l.27-.945c1.08 0 1.86-.21 2.34-.63.48-.39.87-1.1099 1.17-2.1599zm-9.135 13.905c1.14-1.14 2.205-2.28 3.195-3.42 1.02-1.14 1.995-2.49 2.925-4.05.96-1.56 1.92-3.54 2.88-5.94l.135.72c-.63 2.07-1.395 3.885-2.295 5.445-.9 1.53-1.89 2.925-2.97 4.185-1.05 1.26-2.175 2.475-3.375 3.645z"/><path d="m109.529 29.0953c-.87 0-1.725.39-2.565 1.17s-1.635 1.845-2.385 3.195c-.72 1.32-1.365 2.805-1.935 4.455s-1.02 3.36-1.35 5.13c-.3 1.77-.45 3.45-.45 5.04 0 1.26.18 2.19.54 2.79.39.57.945.855 1.665.855.87 0 1.725-.39 2.565-1.17s1.635-1.83 2.385-3.15 1.395-2.79 1.935-4.41c.57-1.65 1.005-3.36 1.305-5.13.33-1.77.495-3.48.495-5.13 0-1.32-.18-2.25-.54-2.79-.36-.57-.915-.855-1.665-.855zm-13.2751 16.335c0-1.32.18-2.76.54-4.32s.915-3.105 1.665-4.635 1.6501-2.91 2.7001-4.14c1.08-1.26 2.34-2.265 3.78-3.015 1.47-.75 3.09-1.125 4.86-1.125 2.01 0 3.6.6 4.77 1.8 1.17 1.17 1.755 2.97 1.755 5.4 0 1.32-.18 2.76-.54 4.32s-.915 3.105-1.665 4.635-1.665 2.925-2.745 4.185c-1.05 1.23-2.31 2.22-3.78 2.97-1.44.75-3.045 1.125-4.815 1.125-2.01 0-3.6001-.6-4.7701-1.8s-1.755-3-1.755-5.4z"/><path d="m96.5947 19.8248c-.3.78-.705 1.92-1.215 3.42-.51 1.47-.99 3.39-1.44 5.76h-.9c.09-.42.15-.855.18-1.305.06-.45.09-.87.09-1.26 0-1.11-.24-2.115-.72-3.015-.45-.93-1.14-1.65-2.07-2.16-.93-.54-2.145-.81-3.645-.81-1.68 0-3.105.435-4.275 1.305-1.14.87-1.71 2.25-1.71 4.14 0 1.11.27 2.16.81 3.15.54.96 1.215 1.89 2.025 2.79.84.9 1.74 1.8 2.7 2.7s1.86 1.83 2.7 2.79c.84.93 1.53 1.92 2.07 2.97s.81 2.205.81 3.465c0 1.56-.375 2.91-1.125 4.05-.72 1.11-1.665 2.025-2.835 2.745-1.14.69-2.4 1.2-3.78 1.53-1.35.36-2.685.54-4.005.54-1.26 0-2.325-.105-3.195-.315-.84-.21-1.545-.48-2.115-.81s-1.08-.645-1.53-.945c-.33-.24-.645-.405-.945-.495-.27-.12-.495-.18-.675-.18-.39 0-.72.195-.99.585-.24.39-.525 1.005-.855 1.845h-.9c.27-.66.555-1.425.855-2.295s.63-1.98.99-3.33c.36-1.38.765-3.105 1.215-5.175h.9c-.15.6-.27 1.2-.36 1.8-.06.6-.075 1.2-.045 1.8.09 2.07.72 3.69 1.89 4.86 1.2 1.14 3.015 1.71 5.445 1.71 1.98 0 3.525-.435 4.635-1.305 1.14-.87 1.71-2.205 1.71-4.005 0-1.26-.255-2.385-.765-3.375-.48-1.02-1.11-1.965-1.89-2.835-.75-.9-1.56-1.77-2.43-2.61s-1.695-1.71-2.475-2.61c-.75-.9-1.365-1.89-1.845-2.97s-.72-2.28-.72-3.6c0-1.47.3-2.76.9-3.87s1.395-2.025 2.385-2.745c.99-.75 2.085-1.305 3.285-1.665 1.23-.39 2.46-.585 3.69-.585 1.44 0 2.64.18 3.6.54.99.33 1.89.795 2.7 1.395.33.24.615.435.855.585.27.12.48.18.63.18.42 0 .915-.795 1.485-2.385z"/></g><g clip-path="url(#b)"><path d="m36.0274 0c1.5825 5.43848-2.3737 11.0456-5.2867 15.4139-4.8119 7.2241-10.632 13.4013-14.3128 21.4689-9.10224 19.9624-3.499 42.3154 20.5725 45.4389-26.5098 3.5481-35.77614-23.3884-26.5918-44.4676 6.4237-14.7507 20.6603-22.6496 25.6188-37.8541z" fill="url(#a)"/><g fill="#b68d33"><path d="m39.1172 1.77437c2.5789 5.08367 6.7871 11.76103 6.2596 17.67653-.0469.5584-.6095 1.5472-.6505 1.9369-.4748 4.566 3.8155 4.1239 6.834 2.9083-1.1898 2.1986-2.9306 3.2863-5.3688 3.7109-.2696.983 6.0897 6.5669 6.8341 7.5848 3.1122 4.2577-4.4779 3.9204-2.9306 7.5848.1758.413 1.5122 1.2157 1.6294 1.7741.4396 2.0997-2.8485 2.4778-4.2317 2.4196 1.0257.5759 3.3232.8842 3.417 2.4197.1172 1.873-2.4089 1.4949-2.9305 3.0654-.592 1.7973 1.8696 4.153.3282 6.7821-1.817 3.0886-11.0365.0465-14.2308.2443-8.1176.4885-9.4656 10.3709-8.2113 16.7051-4.2317-1.7973-8.1177-6.7647-9.7588-11.1387-5.1636-13.7562 1.4067-27.1808 8.9441-38.4183 5.2867-7.8873 13.0702-15.4197 14.0666-25.26135z"/><path d="m23.3399 14.3672.1641.3257c-13.5039 14.4425-26.83206 40.3436-13.0937 58.6658 14.7172 19.6309 46.414 10.3825 48.9577-13.5584.3283-.3141.4806.8957.4865.9714 1.5122 12.1566-9.1257 24.7669-20.2501 28.4895-21.8853 7.3172-39.761607-9.5159-39.60335736-31.0721.11722136-15.4546 9.98729736-35.5217 23.33885736-43.8219z"/></g></g></svg>