<svg fill="none" height="338" viewBox="0 0 198 338" width="198" xmlns="http://www.w3.org/2000/svg"><g fill="#dcb199"><path d="m87.8896 337.519c.0054.005.1864.179.3604.481h-.5537c.0944-.292.1933-.481.1933-.481z"/><path d="m186.067 336.07c.391-.117.626.626.626 1.605-.004.11-.014.219-.025.325h-1.336c.058-.974.396-1.816.735-1.93z"/><path d="m123.157 334.23c.016.018.548.6.625 1.449.039.896-.464 1.754-.469 1.761 0 0-.625-.548-.625-1.448-.078-.895.463-1.752.469-1.762z"/><path d="m159.754 329.885c.391-.078.664.587.664 1.565 0 .979-.312 1.88-.664 1.958-.391.118-.665-.587-.665-1.566s.313-1.84.665-1.957z"/><path d="m29.2012 331.881s.2352.274.3134.627c.0773.349-.0762.697-.0791.704v-.039c-.1172-.196-.2343-.391-.3125-.587-.0781-.352.0782-.705.0782-.705z"/><path d="m63.2178 331.568h-.0391s.0042-.01.0137-.029c.0166.019.0254.029.0254.029z"/><path d="m62.9443 329.18c.0063.006.4302.436.5078 1.096.0683.583-.1934 1.134-.2597 1.263-.0945-.106-.4169-.501-.4834-1.067-.0782-.666.2353-1.292.2353-1.292z"/><path d="m97.7422 326.244c.0116.011.6266.596.7041 1.527.0782.9-.4307 1.8-.4307 1.8v.039c-.0149-.014-.6258-.598-.7031-1.526-.1159-.928.4164-1.818.4297-1.84z"/><path d="m198.501 324.247c.352-.117.626.509.548 1.37 0 .9-.352 1.722-.704 1.801-.352.117-.587-.509-.548-1.37.039-.901.352-1.683.704-1.801z"/><path d="m133.792 322.485c.43-.117.821.744.86 1.879 0 1.175-.274 2.192-.704 2.31h.039c-.43.117-.86-.744-.86-1.879-.039-1.174.235-2.231.665-2.31z"/><path d="m4.84277 323.425h-.03906c.00029-.002.00282-.028.00781-.067.01181.023.02379.044.03125.067z"/><path d="m4.68652 322.681c.0391.117.07808.235.15625.352 0 .081-.0197.237-.03125.325-.05003-.095-.125-.191-.125-.286z"/><path d="m37.999 320.724c.0086.007.352.319.3906.744.039.43-.1562.861-.1562.861s-.3906-.313-.3906-.744c-.0391-.431.1562-.861.1562-.861z"/><path d="m171.444 317.944c.47-.156.822.705.822 1.918 0 1.214-.392 2.271-.861 2.428v-.04c-.469.157-.821-.704-.821-1.918 0-1.174.391-2.27.86-2.388z"/><path d="m72.3672 318.336c.014.014.4698.479.5469 1.135.0778.662-.2702 1.286-.2735 1.292-.0052-.005-.4699-.434-.5478-1.096-.0774-.658.267-1.317.2744-1.331z"/><path d="m107.908 315.321c.352-.078.704.626.782 1.605.079 1.018-.156 1.879-.508 1.958-.352.078-.704-.666-.783-1.645-.078-.978.157-1.839.509-1.918z"/><path d="m144.856 311.484c.47-.117.9.744.9 1.879 0 1.174-.351 2.232-.781 2.35v-.039c-.47.117-.9-.745-.9-1.88 0-1.174.352-2.192.781-2.31z"/><path d="m13.0928 311.798c.0782.156.1953.313.2734.509-.0387.155-.0773.539-.0781.547v.04c-.0782-.196-.1953-.353-.2735-.509 0-.196 0-.391.0782-.587z"/><path d="m47.1484 310.114c.0121.011.3913.361.4297.862.0771.541-.1884 1.005-.1953 1.017 0 0-.3916-.352-.4307-.861-.078-.509.1963-1.018.1963-1.018z"/><path d="m82.1025 307.491s.7039.626.7823 1.527c.1173.939-.0788 1.723-.4307 1.801-.3517.078-.7031-.627-.7812-1.527-.1173-.939.0778-1.722.4296-1.801z"/><path d="m183.683 306.669c.43-.117.782.666.782 1.801-.039 1.096-.431 2.113-.9 2.27-.469.079-.821-.704-.782-1.801.039-1.135.43-2.153.9-2.27z"/><path d="m118.465 304.751c.391-.078.782.666.86 1.684.078 1.056-.196 1.956-.626 2.074v.039c-.43.078-.821-.666-.86-1.723-.078-1.057.196-1.996.626-2.074z"/><path d="m156.353 300.758c.469-.156.898.666.898 1.801.039 1.135-.351 2.152-.82 2.27l-.039.039c-.43.118-.861-.704-.861-1.84-.039-1.135.352-2.153.822-2.27z"/><path d="m22.1631 302.715h-.0391s.0021-.011.0098-.028c.0167.016.0272.026.0293.028z"/><path d="m21.9678 301.54s.2744.197.2744.549c.0321.258-.0722.515-.1084.598-.0659-.066-.2223-.245-.2832-.52-.0391-.313.1172-.627.1172-.627z"/><path d="m56.6104 299.975c.012.011.4306.399.5078.978.0782.587-.2735 1.136-.2735 1.136s-.4304-.392-.5088-.979c-.0391-.587.2745-1.135.2745-1.135z"/><path d="m92.2686 297.273c.3518-.117.7821.666.8603 1.684.0781 1.018-.1569 1.918-.5478 1.996h.039c-.3909.078-.8212-.666-.8994-1.683-.1172-1.018.1178-1.918.5479-1.997z"/><path d="m196.468 295.395c.469-.157.782.586.782 1.643-.078 1.057-.469 2.036-.938 2.153-.509.157-.783-.587-.783-1.644.079-1.057.47-1.996.939-2.152z"/><path d="m129.374 293.867c.586-.117 1.095.862 1.173 2.232.039 1.331-.352 2.544-.9 2.701-.586.117-1.094-.861-1.172-2.232-.079-1.331.352-2.544.899-2.701z"/><path d="m168.355 289.561c.626-.157 1.134.783 1.134 2.153 0 1.409-.508 2.623-1.094 2.779-.587.157-1.095-.821-1.095-2.191s.469-2.585 1.055-2.741z"/><path d="m31.0781 291.636s.3125.313.3907.744c.078.43-.1563.861-.1563.861s-.3515-.313-.4297-.744c-.039-.429.1938-.858.1953-.861z"/><path d="m66.3848 290.188c.01.009.5094.475.5869 1.095.0782.705-.3135 1.292-.3135 1.292-.0119-.01-.5085-.438-.5859-1.096s.3043-1.278.3125-1.291z"/><path d="m102.669 287.329c.469-.078.938.705 1.017 1.84.117 1.096-.196 2.114-.665 2.192-.47.118-.939-.704-1.017-1.84-.117-1.135.196-2.074.665-2.192z"/><path d="m140.712 283.845c.586-.157 1.135.822 1.174 2.114.078 1.331-.352 2.466-.939 2.662h-.039c-.586.157-1.094-.822-1.134-2.153-.078-1.331.352-2.466.938-2.623z"/><path d="m210 287.308c-.09.09-.183.153-.277.178v.039c-.43.118-.783-.548-.704-1.488.039-.939.469-1.8.899-1.957.028-.008.055-.012.082-.014z"/><path d="m5.9375 283.219c.0782.156.19526.274.27344.43-.03891.156-.11637.506-.11719.509-.07819-.156-.15619-.274-.23437-.43 0-.157.03903-.353.07812-.509z"/><path d="m40.5791 282.279c.002.002.3917.354.4697.862.0781.508-.2353.978-.2353.978-.0112-.009-.4307-.359-.5078-.861-.0773-.464.2651-.967.2734-.979z"/><path d="m180.945 278.834c.626-.196 1.095.783 1.095 2.114-.039 1.331-.547 2.584-1.173 2.74v.04c-.625.156-1.095-.823-1.095-2.154.04-1.37.548-2.583 1.173-2.74z"/><path d="m76.4336 280.557c.3518-.039.703.587.7812 1.409.0782.861-.1168 1.605-.4687 1.644v-.039c-.3518.079-.704-.548-.7822-1.37-.0782-.861.1178-1.566.4697-1.644z"/><path d="m113.46 277.855c.469-.117.938.705 1.017 1.762.078 1.096-.235 2.036-.704 2.154v.039c-.508.078-.938-.705-1.016-1.801s.234-2.075.703-2.154z"/><path d="m152.521 273.783c.625-.117 1.133.784 1.172 2.075.039 1.292-.43 2.467-1.016 2.623v-.039c-.587.157-1.134-.783-1.173-2.075s.43-2.466 1.017-2.584z"/><path d="m15.126 274.214s.3125.197.3515.549c.0385.309-.1516.618-.1562.626 0 0-.3124-.196-.3516-.548-.0391-.313.1563-.627.1563-.627z"/><path d="m50.3545 273.313c.004.004.469.395.5469.98.0385.542-.3055 1.085-.3125 1.096 0 0-.4697-.392-.5479-.94-.0782-.626.3135-1.136.3135-1.136z"/><path d="m86.7949 271.317c.43-.077.8603.666.9385 1.606.1171.978-.1569 1.84-.5869 1.918v-.039c-.4301.078-.8603-.627-.9385-1.606-.1172-.939.1568-1.8.5869-1.879z"/><path d="m124.604 267.872c.664-.156 1.289.861 1.368 2.271.078 1.409-.352 2.662-1.017 2.819-.664.117-1.29-.902-1.368-2.311s.352-2.661 1.017-2.779z"/><path d="m194.122 268.146c.587-.156 1.056.705 1.017 1.918-.039 1.253-.587 2.388-1.173 2.584v-.039c-.587.157-1.056-.704-1.017-1.918.039-1.252.547-2.388 1.173-2.545z"/><path d="m164.798 263.762c.625-.157 1.173.704 1.173 1.996 0 1.252-.47 2.427-1.095 2.584-.626.156-1.173-.744-1.173-1.996 0-1.292.469-2.428 1.095-2.584z"/><path d="m60.3633 264.545c.0084.006.6263.474.7041 1.174.0782.704-.4307 1.37-.4307 1.37v.039c-.0194-.016-.626-.52-.7031-1.213-.0771-.695.4159-1.352.4297-1.37z"/><path d="m24.627 265.484c.0105.01.3525.32.4296.744.0387.425-.2279.851-.2343.861-.0084-.008-.3523-.318-.4297-.743-.0387-.426.2283-.852.2344-.862z"/><path d="m97.4688 262.273c.5081-.078 1.0164.705 1.0947 1.801.0782 1.096-.2349 2.075-.7432 2.154-.5082.078-.9774-.705-1.0947-1.801-.1172-1.096.2349-2.075.7432-2.154z"/><path d="m136.216 258.359c.704-.195 1.369.861 1.447 2.349s-.431 2.858-1.174 3.015l.039.039c-.742.156-1.407-.941-1.485-2.428s.43-2.818 1.173-2.975z"/><path d="m207.885 257.38c.586-.157.977.548.938 1.644-.039 1.136-.547 2.153-1.134 2.31-.586.196-.977-.548-.938-1.684.078-1.096.547-2.114 1.134-2.27z"/><path d="m70.6465 255.893c.3909-.079.8211.587.9385 1.487.0781.9-.1569 1.683-.587 1.762l.0391.039c-.4299.077-.8593-.627-.9766-1.527-.0781-.9.156-1.683.586-1.761z"/><path d="m34.3232 257.224s.5088.391.587.9c.039.509-.3135 1.018-.3135 1.018-.0161-.013-.509-.4-.586-.901-.0386-.504.3065-1.009.3125-1.017z"/><path d="m177.583 253.113c.821-.235 1.446.822 1.446 2.349s-.625 2.975-1.407 3.171h-.039c-.782.196-1.407-.861-1.407-2.388s.625-2.936 1.407-3.132z"/><path d="m108.455 253.465c.547-.118 1.135.744 1.213 1.88.078 1.174-.274 2.231-.86 2.348-.548.118-1.134-.743-1.212-1.918-.078-1.174.273-2.192.859-2.31z"/><path d="m148.22 248.963c.782-.195 1.446.862 1.524 2.349.039 1.488-.508 2.857-1.29 3.014v.039c-.782.157-1.447-.9-1.525-2.387-.078-1.488.509-2.859 1.291-3.015z"/><path d="m44.2939 249.237c.0141.01.6258.438.7032 1.057.0782.626-.3907 1.214-.3907 1.214v-.039s-.6259-.431-.7041-1.058c-.0388-.626.3916-1.174.3916-1.174z"/><path d="m81.1641 247.515c.5474-.118 1.0555.665 1.1728 1.722.0782 1.057-.2341 1.997-.7422 2.075v.04c-.5473.078-1.0564-.705-1.1738-1.762-.1173-1.057.235-1.997.7432-2.075z"/><path d="m8.75293 249.668c.01191.009.31318.242.35156.587.0391.313-.19531.627-.19531.627s-.31345-.236-.35254-.588c-.03896-.313.19629-.626.19629-.626z"/><path d="m119.755 244.03c.821-.156 1.603.979 1.721 2.545.117 1.566-.47 3.014-1.29 3.171-.822.157-1.604-.979-1.682-2.545-.117-1.605.43-3.014 1.251-3.171z"/><path d="m191.072 242.974c.743-.235 1.329.743 1.329 2.113-.039 1.37-.664 2.662-1.407 2.897h.039c-.743.196-1.329-.783-1.329-2.153s.625-2.662 1.368-2.857z"/><path d="m160.731 239.411c.782-.235 1.525.822 1.564 2.31.039 1.526-.586 2.936-1.407 3.132-.782.234-1.526-.823-1.565-2.349-.039-1.527.626-2.858 1.408-3.093z"/><path d="m54.499 241.485c.3908-.038.7031.51.8203 1.214.0782.705-.1169 1.331-.4687 1.37l-.0391-.039c-.3519.039-.704-.47-.7822-1.175-.0781-.704.1179-1.291.4697-1.37z"/><path d="m18.4492 242.19c.0081.007.3523.279.4297.665.0391.392-.2344.745-.2344.745h-.039c-.0044-.003-.3905-.276-.4297-.665-.0388-.389.269-.74.2734-.745z"/><path d="m91.9951 239.215c.6255-.117 1.2509.744 1.3682 1.958.1171 1.213-.2739 2.27-.8994 2.388-.6256.078-1.2509-.784-1.3682-1.998-.1563-1.174.2739-2.231.8994-2.348z"/><path d="m131.446 235.144c.939-.196 1.759.978 1.876 2.662.157 1.683-.508 3.21-1.446 3.406v.039c-.938.196-1.76-1.018-1.877-2.701-.117-1.684.509-3.172 1.447-3.406z"/><path d="m64.9385 233.655c.5081-.078 1.0165.627 1.1338 1.567.1173.978-.1959 1.8-.7041 1.879-.5083.078-1.0164-.665-1.1338-1.605-.0782-.939.1958-1.762.7041-1.841z"/><path d="m205.147 232.599c.704-.235 1.252.587 1.213 1.8-.039 1.214-.626 2.389-1.33 2.584-.703.235-1.212-.587-1.212-1.8.039-1.214.626-2.388 1.329-2.584z"/><path d="m28.3799 234.791s.5477.391.626.939c.0769.501-.338 1.002-.3516 1.018-.0051-.004-.5481-.394-.626-.939-.077-.503.3421-1.007.3516-1.018z"/><path d="m103.138 231.072c.703-.117 1.408.822 1.525 2.114.117 1.291-.352 2.427-1.056 2.584v.039c-.703.117-1.408-.862-1.525-2.154-.117-1.291.352-2.426 1.056-2.583z"/><path d="m173.751 229.153c1.016-.274 1.916.94 1.955 2.741.039 1.8-.821 3.523-1.838 3.797v.039c-1.055.274-1.916-.978-1.955-2.818 0-1.801.782-3.485 1.838-3.759z"/><path d="m143.645 226.218c.977-.235 1.876.939 1.955 2.662.117 1.722-.626 3.327-1.603 3.562h.039c-.977.235-1.877-.978-1.994-2.701-.117-1.722.625-3.288 1.603-3.523z"/><path d="m75.6123 226.061c.6255-.079 1.2117.704 1.3682 1.839.1173 1.097-.2739 2.114-.8994 2.193-.6256.117-1.2509-.744-1.3682-1.84-.1172-1.135.2739-2.114.8994-2.192z"/><path d="m38.5459 227.744c.3127-.039.6649.431.7432 1.057.0782.626-.1179 1.174-.4698 1.214-.3126.038-.6639-.431-.7422-1.057-.0781-.626.117-1.214.4688-1.214z"/><path d="m2.73145 228.019c.0099.005.27413.161.3125.43.0389.274-.15625.509-.15625.509l-.03907.039s-.27328-.196-.3125-.47c-.03878-.271.19155-.505.19532-.508z"/><path d="m114.555 222.264c1.016-.196 1.955 1.017 2.111 2.74.156 1.762-.508 3.328-1.524 3.523-1.017.235-1.955-1.057-2.112-2.779-.156-1.722.508-3.288 1.525-3.484z"/><path d="m187.396 219.288c1.056-.313 1.916.822 1.916 2.545 0 1.722-.86 3.367-1.876 3.68v.039c-1.056.273-1.915-.901-1.915-2.623 0-1.723.82-3.327 1.875-3.641z"/><path d="m156.273 217.096c1.095-.274 2.034.9 2.112 2.662.039 1.8-.743 3.444-1.798 3.719-1.056.274-1.955-.979-2.072-2.741-.078-1.761.703-3.366 1.758-3.64z"/><path d="m48.8682 220.854c.3909-.04.8211.47.8994 1.213.1173.744-.1569 1.37-.5479 1.41h-.039c-.3908.038-.8202-.47-.8985-1.213-.0782-.744.1559-1.371.586-1.41z"/><path d="m86.5596 218.544c.7428-.118 1.4471.783 1.5644 2.036.1563 1.214-.352 2.348-1.0556 2.466-.7038.117-1.4471-.783-1.5645-2.035-.1564-1.253.3521-2.349 1.0557-2.467z"/><path d="m12.6621 221.441s.3525.235.3916.548-.2353.587-.2353.587c-.0146-.01-.3524-.241-.3907-.548s.2246-.577.2344-.587z"/><path d="m126.402 213.807c1.173-.274 2.229 1.057 2.385 2.936.157 1.918-.665 3.68-1.799 3.915-1.173.235-2.189-1.096-2.384-3.014-.157-1.88.625-3.563 1.798-3.837z"/><path d="m59.3857 213.807c.5474-.079 1.0947.626 1.212 1.566.1172.939-.2341 1.761-.7813 1.84v.039c-.5473.078-1.0945-.665-1.2119-1.605-.1173-.939.234-1.762.7812-1.84z"/><path d="m22.9844 216.548h-.0391s.0045-.008.0147-.019c.0154.012.0244.019.0244.019z"/><path d="m22.75 214.981s.4697.314.5479.745c.0341.378-.265.724-.3379.803-.0982-.072-.4552-.355-.5225-.725-.0391-.431.3125-.823.3125-.823z"/><path d="m97.7812 210.91c.8602-.156 1.6815.822 1.8379 2.232.1173 1.409-.43 2.661-1.29 2.818-.8602.157-1.6815-.861-1.8379-2.271-.1172-1.37.43-2.622 1.29-2.779z"/><path d="m201.785 209.227c.978-.314 1.76.704 1.76 2.27-.078 1.566-.9 3.054-1.877 3.367l.039.039c-.977.274-1.76-.744-1.76-2.309 0-1.566.822-3.054 1.838-3.367z"/><path d="m169.45 207.19c1.329-.352 2.464 1.019 2.542 3.093.078 2.114-.939 4.073-2.268 4.464h-.039c-1.291.313-2.424-1.097-2.502-3.172s.938-4.032 2.267-4.385z"/><path d="m138.68 205.351c1.251-.313 2.384 1.018 2.541 2.975.156 1.958-.743 3.836-1.994 4.111h-.039c-1.213.274-2.346-1.097-2.502-3.054-.157-1.918.743-3.719 1.994-4.032z"/><path d="m70.1387 206.839c.7036-.117 1.368.705 1.5244 1.84.1172 1.135-.3129 2.153-1.0166 2.231-.7037.117-1.3679-.744-1.5244-1.879-.1173-1.096.3128-2.114 1.0166-2.192z"/><path d="m32.9941 208.757c.0081.005.5874.356.6651.861.0389.508-.428.976-.4307.979v-.039c-.3127.039-.5868-.353-.665-.862-.0781-.469.1179-.939.4306-.939z"/><path d="m109.276 202.493c1.212-.235 2.386 1.057 2.581 2.976.196 1.918-.625 3.719-1.877 3.954-1.212.235-2.385-1.136-2.581-3.054-.195-1.879.665-3.602 1.877-3.876z"/><path d="m183.33 197.717c1.329-.353 2.425.9 2.464 2.857s-1.017 3.876-2.307 4.268c-1.29.391-2.385-.939-2.425-2.897-.039-1.957.978-3.836 2.268-4.228z"/><path d="m43.3555 202.532c.3909-.039.743.431.8213 1.018.1173.626-.1569 1.135-.5088 1.175v-.039c-.3909.039-.7431-.432-.8213-1.019-.1171-.587.157-1.096.5088-1.135z"/><path d="m81.1641 200.223c.7038-.118 1.369.665 1.5254 1.761.1562 1.096-.3131 2.075-1.0166 2.193v.039c-.7038.117-1.408-.705-1.5254-1.801-.1564-1.096.3129-2.075 1.0166-2.192z"/><path d="m151.465 196.62c1.329-.313 2.541.979 2.658 2.976.156 1.996-.86 3.915-2.189 4.267-1.33.352-2.502-1.018-2.659-3.014-.117-1.997.86-3.877 2.19-4.229z"/><path d="m7.18848 202.688s.42929.235.42968.548c.0391.314-.27343.588-.27343.588-.00591-.003-.39056-.237-.42969-.548-.03909-.313.27344-.588.27344-.588z"/><path d="m121.163 194.507c1.447-.313 2.736 1.096 2.932 3.171.234 2.114-.743 4.071-2.151 4.384l-.039.04c-1.407.273-2.697-1.176-2.892-3.29-.196-2.074.782-3.992 2.15-4.305z"/><path d="m53.9902 196.308c.4691-.04.9383.508 1.0166 1.213.0782.704-.2349 1.331-.7041 1.41-.4557.006-.9015-.529-.9775-1.214-.1173-.705.1959-1.331.665-1.409z"/><path d="m17.3545 197.012s.4296.274.5078.666c.039.391-.3516.744-.3516.744s-.4686-.275-.5078-.666c-.0782-.392.3516-.744.3516-.744z"/><path d="m92.4639 193.097c.8602-.157 1.6815.744 1.8379 1.997.1172 1.252-.4301 2.427-1.2901 2.584-.8602.156-1.6424-.744-1.8379-2.036-.1172-1.253.4299-2.389 1.2901-2.545z"/><path d="m164.759 186.872c1.72-.469 3.206 1.058 3.323 3.484.117 2.428-1.173 4.816-2.854 5.286-1.682.469-3.128-1.136-3.285-3.563-.156-2.427 1.095-4.737 2.816-5.207z"/><path d="m133.519 186.207c1.641-.391 3.088 1.096 3.284 3.366.195 2.31-.939 4.463-2.503 4.855l-.039-.039c-1.603.391-3.05-1.174-3.245-3.445-.196-2.231.899-4.345 2.503-4.737z"/><path d="m197.875 188.008c1.251-.392 2.268.704 2.269 2.466 0 1.761-1.018 3.484-2.23 3.876-1.212.391-2.228-.744-2.228-2.505 0-1.762.977-3.445 2.189-3.837z"/><path d="m64.7422 189.848c.5865-.079 1.2127.587 1.3691 1.527.1171.939-.313 1.801-.9384 1.879-.6256.078-1.2509-.627-1.3682-1.566-.1172-.94.2731-1.762.9375-1.84z"/><path d="m27.5986 191.453c.3518 0 .625.353.7032.822.078.47-.117.901-.4297.901-.3519.039-.6259-.353-.7041-.822-.0782-.47.1178-.901.4306-.901z"/><path d="m103.998 185.229c1.212-.275 2.386.9 2.581 2.662.195 1.761-.665 3.366-1.877 3.64-1.212.235-2.346-1.018-2.581-2.74-.195-1.722.665-3.288 1.877-3.562z"/><path d="m38.0771 185.815c.43-.039.7822.392.8995.979.0781.626-.196 1.136-.587 1.175-.43.039-.8212-.432-.8994-1.019-.078-.587.1961-1.095.5869-1.135z"/><path d="m75.7295 183.349c.7819-.118 1.5642.665 1.7207 1.8.1564 1.136-.3911 2.154-1.1729 2.272-.782.156-1.5643-.667-1.7207-1.802-.1562-1.135.391-2.153 1.1729-2.27z"/><path d="m2.10547 185.815s.39147.235.43066.548c.03884.311-.30888.584-.31347.587-.01428-.008-.39133-.24-.42969-.548-.03845-.309.30457-.58.3125-.587z"/><path d="m146.421 177.907c1.72-.469 3.245 1.018 3.44 3.288.157 2.31-1.055 4.581-2.775 5.012v.039c-1.681.431-3.207-1.096-3.363-3.406-.196-2.31 1.017-4.463 2.698-4.933z"/><path d="m178.756 177.79c1.642-.509 3.089.9 3.167 3.132.078 2.27-1.212 4.502-2.855 5.011-1.642.469-3.049-.94-3.128-3.21-.078-2.232 1.174-4.424 2.816-4.933z"/><path d="m115.885 177.438c1.485-.313 2.893.979 3.128 3.014.195 2.036-.822 3.994-2.308 4.307h.039c-1.524.313-2.893-1.058-3.128-3.093-.234-1.997.783-3.876 2.269-4.228z"/><path d="m48.7119 180.139c.5083-.039.9774.47 1.0947 1.174.0781.705-.2349 1.292-.7431 1.371-.5082.038-1.0166-.471-1.0947-1.175-.1173-.705.2349-1.331.7431-1.37z"/><path d="m12.2324 180.805c.0128.007.5082.278.5469.665.0782.352-.3516.705-.3516.705h-.039s-.4687-.314-.5469-.666c-.0386-.387.3811-.697.3906-.704z"/><path d="m86.9902 176.615c.9775-.156 1.9159.744 2.1114 2.075.1563 1.331-.4698 2.584-1.4864 2.741-.9773.195-1.9158-.784-2.1113-2.115-.1563-1.331.5089-2.544 1.4863-2.701z"/><path d="m159.793 168.473c2.072-.627 3.91 1.017 4.105 3.718.196 2.741-1.329 5.442-3.401 6.03v-.039c-2.072.587-3.871-1.136-4.066-3.837-.196-2.662 1.29-5.285 3.362-5.872z"/><path d="m128.239 169.334c1.76-.47 3.402 1.017 3.637 3.288.235 2.349-1.017 4.58-2.776 5.011-1.76.43-3.362-1.135-3.636-3.405-.196-2.271 1.016-4.424 2.775-4.894z"/><path d="m59.4639 174.148c.7037-.117 1.369.588 1.4863 1.489.1563.939-.313 1.8-1.0166 1.879-.7037.078-1.3299-.587-1.4863-1.527-.1173-.939.313-1.762 1.0166-1.841z"/><path d="m22.5938 175.793c.3127 0 .6259.353.7041.783.039.47-.157.862-.5088.862h.039c-.3518.039-.6259-.314-.7041-.784-.0781-.43.1179-.861.4698-.861z"/><path d="m98.5244 169.177c1.3684-.274 2.6586.9 2.8936 2.662.235 1.801-.704 3.484-2.0723 3.759h-.0391c-1.3292.274-2.6197-.979-2.8545-2.741-.2345-1.761.7038-3.406 2.0723-3.68z"/><path d="m193.457 168.434c1.525-.509 2.776.664 2.855 2.622.039 1.957-1.174 3.955-2.66 4.464-1.524.469-2.736-.745-2.814-2.703-.039-1.957 1.094-3.913 2.619-4.383z"/><path d="m32.9941 170.665c.4301-.039.8603.391.9385.939.0781.588-.1959 1.096-.626 1.096-.43.078-.8212-.391-.8994-.939-.1172-.587.1569-1.096.5869-1.096z"/><path d="m70.4512 168.042c.8992-.157 1.7205.626 1.8769 1.762.1953 1.135-.4309 2.192-1.291 2.309-.8599.157-1.7195-.666-1.876-1.801-.1564-1.135.4299-2.113 1.2901-2.27z"/><path d="m141.064 160.956c2.034-.548 3.832.978 4.106 3.444.235 2.506-1.212 5.012-3.206 5.56s-3.793-1.057-4.067-3.563c-.234-2.466 1.173-4.893 3.167-5.441z"/><path d="m110.41 161.582c1.721-.391 3.324.979 3.598 3.093.273 2.153-.9 4.227-2.62 4.619l-.039-.039c-1.682.391-3.284-1.057-3.558-3.171s.899-4.11 2.619-4.502z"/><path d="m173.868 159.742c1.994-.626 3.715.822 3.871 3.249.157 2.467-1.329 4.972-3.323 5.599h-.039c-1.955.587-3.637-.901-3.793-3.367-.156-2.427 1.29-4.854 3.284-5.481z"/><path d="m43.5508 165.419c.5473-.078 1.0554.43 1.1728 1.135.0782.704-.2739 1.331-.7822 1.37l-.0391-.039c-.5471.078-1.0554-.47-1.1337-1.135-.0782-.665.2739-1.292.7822-1.331z"/><path d="m7.34473 165.889c.27366-.039.50869.273.58691.626.03909.352-.43066.666-.43066.666v.039c-.0109-.006-.5086-.279-.58594-.627-.03896-.391.15617-.704.42969-.704z"/><path d="m81.7119 161.621c1.0947-.195 2.1502.705 2.3457 2.075.1954 1.37-.5478 2.662-1.6426 2.858-1.0946.234-2.1893-.744-2.3457-2.115-.1953-1.37.5479-2.622 1.6426-2.818z"/><path d="m208.94 158.489c.375-.128.735-.148 1.06-.074v5.631c-.313.284-.658.504-1.021.629-1.368.469-2.501-.548-2.501-2.271-.04-1.683 1.094-3.445 2.462-3.915z"/><path d="m54.3027 159.938c.7428-.079 1.408.548 1.5254 1.409.1173.861-.352 1.644-1.0556 1.761-.7038.079-1.4081-.587-1.5254-1.448-.1172-.861.3521-1.644 1.0556-1.722z"/><path d="m17.5889 161.269c.3519 0 .6649.352.7431.783.0391.47-.1569.861-.5088.861-.3518 0-.7031-.313-.7421-.783-.0782-.47.1559-.861.5078-.861z"/><path d="m154.397 151.364c2.659-.822 5.005 1.018 5.279 4.111.273 3.171-1.643 6.38-4.262 7.164-2.619.783-4.926-1.174-5.2-4.306-.313-3.093 1.564-6.147 4.183-6.969z"/><path d="m122.766 153.635c2.072-.548 3.988.979 4.3 3.445.274 2.506-1.173 5.011-3.245 5.52l.039-.039c-2.072.547-3.988-1.057-4.3-3.563-.313-2.427 1.133-4.815 3.206-5.363z"/><path d="m93.2461 154.849c1.3684-.313 2.6589.782 2.8935 2.387.1955 1.644-.7039 3.171-2.0722 3.485v.039c-1.3685.274-2.659-.823-2.8936-2.467-.1953-1.644.7039-3.17 2.0723-3.444z"/><path d="m188.648 150.033c2.073-.704 3.87.666 3.988 3.132.078 2.466-1.486 5.05-3.558 5.716h-.039c-2.033.665-3.793-.784-3.91-3.25-.117-2.427 1.447-4.893 3.519-5.598z"/><path d="m27.9893 156.649c.43-.039.8602.353.9384.901.0781.548-.235 1.056-.665 1.056s-.8603-.391-.9385-.939c-.039-.509.235-1.018.6651-1.018z"/><path d="m65.251 154.144c.9383-.157 1.7987.587 1.9551 1.683.1563 1.096-.4699 2.075-1.3692 2.232-.8991.117-1.7586-.627-1.915-1.723-.1564-1.057.4298-2.036 1.3291-2.192z"/><path d="m135.591 145.335c2.424-.704 4.652.9 4.965 3.68.312 2.779-1.407 5.638-3.831 6.303h.039c-2.424.666-4.614-1.057-4.927-3.837-.313-2.701 1.33-5.441 3.754-6.146z"/><path d="m105.054 147.214c1.837-.47 3.597.901 3.91 3.015.313 2.153-.978 4.306-2.855 4.737h-.039c-1.837.43-3.558-.979-3.871-3.132-.273-2.114.978-4.189 2.855-4.62z"/><path d="m38.5068 151.795c.5474-.039 1.0946.43 1.1729 1.096.1172.665-.2732 1.252-.8203 1.292-.5474.078-1.0565-.431-1.1739-1.096-.0781-.666.2741-1.253.8213-1.292z"/><path d="m168.512 142.634c2.619-.861 4.965.783 5.2 3.759.234 3.014-1.76 6.184-4.34 7.006-2.58.823-4.848-.978-5.122-3.954-.234-2.936 1.642-5.95 4.262-6.811z"/><path d="m2.5752 152.226c.01518.007.46875.239.46875.508.07715.271-.30334.504-.3125.509l-.03907-.039s-.43056-.196-.46972-.47c0-.274.35254-.508.35254-.508z"/><path d="m76.3945 147.997c1.1729-.235 2.2674.666 2.4629 1.997.1953 1.331-.5869 2.584-1.7207 2.818-1.1728.196-2.2674-.705-2.4629-2.036-.1952-1.331.587-2.583 1.7207-2.779z"/><path d="m13.0146 149.328h-.039c.0056 0 .011-.003.0166-.003.0074.001.015.003.0224.003z"/><path d="m12.8184 148.114c.2737 0 .5478.236.5869.588.0381.307-.1485.61-.4131.623-.2661-.012-.5264-.241-.5645-.584-.039-.352.1173-.626.3907-.627z"/><path d="m49.2598 146.94c.5472-.038 1.0946.431 1.1728 1.057s-.313 1.214-.8603 1.292-1.0945-.391-1.1729-1.057c-.0782-.626.313-1.213.8604-1.292z"/><path d="m117.331 139.346c2.346-.627 4.497.899 4.849 3.444.312 2.584-1.291 5.208-3.637 5.834h.039c-2.307.587-4.457-1.019-4.809-3.603-.351-2.544 1.251-5.049 3.558-5.675z"/><path d="m148.884 135.9c3.167-.978 6.021.9 6.373 4.306.352 3.445-1.915 7.126-5.043 8.065-3.089.901-5.865-1.175-6.256-4.581-.391-3.327 1.837-6.811 4.926-7.79z"/><path d="m204.21 140.285c1.916-.665 3.518.509 3.597 2.662.078 2.192-1.447 4.502-3.324 5.167-1.876.666-3.48-.587-3.558-2.74s1.369-4.384 3.285-5.089z"/><path d="m87.8896 141.42c1.4466-.313 2.8543.745 3.0889 2.35.1952 1.643-.7822 3.21-2.2285 3.523v-.04c-1.4466.313-2.7761-.783-3.0498-2.388-.2346-1.605.7037-3.132 2.1894-3.445z"/><path d="m23.1797 143.848c.3127 0 .6648.312.7041.704.0782.391-.1561.783-.5078.783h.039c-.3519.039-.6649-.274-.7431-.705-.0779-.43.1563-.782.5078-.782z"/><path d="m60.0898 141.498c.7428-.078 1.407.47 1.5635 1.292.1173.822-.3518 1.605-1.0947 1.723v-.039c-.7428.117-1.4462-.47-1.5635-1.292-.1172-.822.3519-1.567 1.0947-1.684z"/><path d="m183.369 133.669c2.424-.861 4.614.548 4.771 3.21.156 2.701-1.721 5.598-4.145 6.42h.039c-2.424.822-4.535-.704-4.73-3.366-.196-2.623 1.602-5.403 4.065-6.264z"/><path d="m130.077 131.007c2.815-.822 5.435.821 5.787 3.797.352 3.014-1.642 6.146-4.418 6.968h.039c-2.776.783-5.318-1.017-5.709-3.993-.391-2.936 1.525-5.95 4.301-6.772z"/><path d="m99.6582 134.178c1.9158-.47 3.7538.782 4.0668 2.857.312 2.075-1.017 4.19-2.972 4.659v.039c-1.9159.431-3.7146-.9-4.0274-2.975-.3127-2.075 1.0168-4.11 2.9326-4.58z"/><path d="m33.6191 139.385c.43-.039.8601.312.9385.821.0782.509-.2341.94-.664.98-.4301.039-.8602-.314-.9385-.823-.0782-.508.2342-.939.664-.978z"/><path d="m71.1943 135.782c.9383-.195 1.7987.471 1.9551 1.489.1953.978-.4308 1.957-1.3691 2.114v.039c-.8992.156-1.7987-.51-1.9551-1.528-.1563-1.017.4308-1.957 1.3691-2.114z"/><path d="m162.96 127.444c3.089-1.018 5.826.665 6.139 3.836.312 3.25-1.956 6.734-4.966 7.752v-.039c-3.011.979-5.67-.861-6.022-4.032s1.838-6.46 4.849-7.517z"/><path d="m44.2549 134.608c.5473-.078 1.0946.392 1.1728.979.0782.626-.3129 1.175-.8603 1.253l.039-.039c-.5472.078-1.0944-.353-1.1728-.979-.1173-.587.2739-1.135.8213-1.214z"/><path d="m8.24414 135.47c.2737 0 .54781.234.58691.548 0 .313-.15698.586-.43066.586-.27362 0-.54685-.234-.58594-.547.00002-.314.15605-.587.42969-.587z"/><path d="m111.779 126.504c2.463-.665 4.731.744 5.083 3.25.352 2.545-1.29 5.128-3.715 5.794h-.039c-2.385.626-4.613-.901-5.004-3.406-.352-2.467 1.251-4.973 3.675-5.638z"/><path d="m143.293 121.807c3.558-1.175 6.842.705 7.272 4.306.43 3.68-2.15 7.594-5.669 8.73h.04c-3.519 1.096-6.686-1.018-7.156-4.619-.469-3.563 1.994-7.243 5.513-8.417z"/><path d="m82.5723 129.44c1.2509-.234 2.3845.549 2.58 1.84.1955 1.253-.6258 2.507-1.8378 2.781-1.212.273-2.3456-.549-2.5411-1.841-.2344-1.292.5869-2.506 1.7989-2.78z"/><path d="m18.4883 131.477c.3518-.04.6649.273.7431.665.0391.391-.1569.744-.5087.744-.3519.039-.665-.275-.7432-.666-.078-.392.157-.743.5088-.743z"/><path d="m198.892 124.351c2.228-.822 4.105.313 4.222 2.584.118 2.27-1.563 4.776-3.714 5.559l-.039.039c-2.15.783-3.988-.43-4.144-2.701-.118-2.231 1.485-4.659 3.675-5.481z"/><path d="m55.0459 129.479c.7038-.117 1.369.392 1.4863 1.175.1562.783-.3522 1.487-1.0556 1.605-.7037.078-1.3689-.43-1.4864-1.213-.1173-.744.3519-1.449 1.0557-1.567z"/><path d="m124.408 118.283c3.011-.9 5.787.666 6.217 3.641s-1.643 6.185-4.653 7.086h-.039c-2.933.861-5.67-.862-6.1-3.837-.43-2.936 1.604-5.989 4.575-6.89z"/><path d="m177.778 118.87c2.776-.979 5.2.392 5.474 3.132.235 2.78-1.837 5.834-4.574 6.812-2.698.94-5.083-.548-5.357-3.289-.273-2.701 1.72-5.676 4.457-6.655z"/><path d="m28.9277 127.248c.4301 0 .8212.353.8994.822.0782.47-.2349.94-.665.94-.43.039-.8212-.353-.8994-.822-.0781-.47.235-.901.665-.94z"/><path d="m94.3018 122.785c1.4857-.391 2.8933.51 3.1279 2.036.2343 1.527-.7822 3.092-2.2676 3.445-1.4465.352-2.8541-.587-3.0889-2.114-.2737-1.487.7428-2.975 2.2286-3.367z"/><path d="m66.0723 123.96c.8992-.156 1.7596.47 1.916 1.409.1562.979-.4309 1.879-1.3692 2.035-.8601.157-1.7596-.508-1.916-1.448-.1563-.939.4699-1.8 1.3692-1.996z"/><path d="m157.368 113.898c3.284-1.135 6.257.431 6.609 3.602.351 3.21-1.995 6.773-5.24 7.869-3.245 1.057-6.138-.666-6.529-3.837-.352-3.092 1.915-6.498 5.16-7.634z"/><path d="m39.4453 122.785c.5474-.039 1.0556.392 1.1338.94.0782.587-.2739 1.057-.8213 1.135h.0391c-.5471.039-1.0554-.352-1.1338-.939-.0782-.587.274-1.057.7822-1.136z"/><path d="m3.70898 123.138c.23451 0 .46873.195.50782.508.03905.314-.11706.548-.39063.548-.23459 0-.46969-.195-.50879-.508-.03909-.314.11791-.548.3916-.548z"/><path d="m106.383 115.425c1.916-.548 3.675.509 3.988 2.388.313 1.88-1.017 3.876-2.933 4.385h-.039c-1.876.509-3.635-.588-3.948-2.467-.274-1.879 1.016-3.758 2.932-4.306z"/><path d="m77.3721 117.931c1.1728-.235 2.2674.509 2.4629 1.683.1953 1.175-.5869 2.31-1.7598 2.584-1.1728.274-2.2673-.509-2.4629-1.683-.1955-1.175.5868-2.31 1.7598-2.584z"/><path d="m137.584 109.67c3.558-1.214 6.843.47 7.312 3.837.43 3.406-2.072 7.164-5.591 8.3v.039c-3.48 1.135-6.686-.744-7.156-4.111-.469-3.327 1.916-6.89 5.435-8.065z"/><path d="m13.835 119.457c.3519-.039.6259.275.7041.627.039.352-.1562.665-.4688.665-.3518.039-.6649-.274-.7041-.626-.0781-.352.1562-.666.4688-.666z"/><path d="m50.1582 117.892c.6646-.079 1.2908.391 1.4082 1.095.1173.705-.352 1.371-1.0166 1.45v-.04c-.6647.079-1.2909-.392-1.4082-1.096-.0782-.666.3522-1.331 1.0166-1.409z"/><path d="m193.34 109.748c2.385-.9 4.497.196 4.692 2.467.157 2.31-1.642 4.893-4.027 5.794-2.385.861-4.419-.314-4.614-2.584-.196-2.271 1.564-4.777 3.949-5.677z"/><path d="m24.1963 115.464c.3909 0 .7821.313.8603.783.0782.431-.1951.861-.625.861-.391 0-.7821-.313-.8603-.783-.078-.43.1952-.861.625-.861z"/><path d="m89.0234 111.589c1.3685-.352 2.659.47 2.8936 1.801.2343 1.33-.7432 2.701-2.1113 3.053h.039c-1.3684.353-2.6589-.509-2.8935-1.84-.2344-1.331.7039-2.662 2.0722-3.014z"/><path d="m118.935 107.556c2.384-.744 4.612.431 4.964 2.662.352 2.27-1.289 4.698-3.713 5.442l.039.039c-2.385.705-4.575-.588-4.927-2.819s1.252-4.581 3.637-5.324z"/><path d="m61.0674 112.567c.8601-.156 1.6815.431 1.8379 1.331.1171.901-.47 1.723-1.3301 1.879h.0391c-.8601.157-1.6806-.43-1.837-1.331-.1564-.9.4299-1.722 1.2901-1.879z"/><path d="m172.07 105.56c2.893-1.057 5.473.195 5.786 2.857.313 2.701-1.798 5.755-4.652 6.812h-.039c-2.815 1.018-5.357-.352-5.67-3.014s1.721-5.598 4.575-6.655z"/><path d="m34.6357 111.275c.5083-.039.9775.353 1.0557.862.0781.509-.2341.978-.7422 1.017h-.039c-.5083.039-.9384-.352-1.0166-.861s.2342-.978.7421-1.018z"/><path d="m151.543 101.88c3.284-1.175 6.255.195 6.646 3.171.43 2.975-1.916 6.381-5.161 7.516h-.039c-3.206 1.135-6.099-.431-6.529-3.367-.391-2.936 1.838-6.146 5.083-7.32z"/><path d="m72.2109 106.812c1.1337-.234 2.1502.47 2.3457 1.527.1955 1.096-.5477 2.154-1.6425 2.389-1.1338.234-2.1503-.471-2.3457-1.567-.1564-1.057.5478-2.114 1.6425-2.349z"/><path d="m100.987 104.502c1.721-.47 3.363.431 3.637 2.075.274 1.605-.939 3.367-2.659 3.837s-3.3232-.47-3.5968-2.114c-.2737-1.605.8988-3.289 2.6188-3.798z"/><path d="m45.2715 106.616c.6255-.078 1.2118.353 1.3291 1.019.078.665-.313 1.253-.9385 1.331s-1.2118-.353-1.3291-1.019c-.1171-.665.313-1.252.9385-1.331z"/><path d="m131.954 99.0996c2.893-.9787 5.592.2745 5.983 2.8974.39 2.623-1.643 5.559-4.498 6.538-2.893.939-5.473-.47-5.903-3.054-.391-2.583 1.564-5.403 4.418-6.3814z"/><path d="m9.2998 107.556c.2737 0 .58688.274.62598.627.039.352-.157.626-.46973.626-.27355-.001-.54675-.274-.625-.626-.03909-.353.15602-.627.46875-.627z"/><path d="m210 106.96c-2.03.694-3.762-.245-3.914-2.106-.156-1.918 1.447-4.11 3.559-4.9321.119-.0457.238-.0857.355-.1211z"/><path d="m19.7393 105.246h-.0391c.0056 0 .0111-.003.0166-.003.0075 0 .0149.003.0225.003z"/><path d="m19.5439 104.032c.2737 0 .626.236.626.588.0382.308-.1501.612-.4531.623-.305-.011-.6044-.24-.6426-.584-.0391-.313.1569-.627.4697-.627z"/><path d="m83.7842 100.783c1.212-.313 2.3846.392 2.5801 1.567.1952 1.174-.6651 2.349-1.877 2.662l.0391.039c-1.251.274-2.3846-.431-2.5801-1.606-.1955-1.174.6258-2.349 1.8379-2.662z"/><path d="m187.593 96.6338c2.502-.9786 4.73.0001 4.965 2.1924.195 2.2318-1.643 4.8548-4.145 5.7938h.039c-2.463.939-4.613-.118-4.887-2.31-.234-2.193 1.565-4.7367 4.028-5.6762z"/><path d="m56.1406 101.527c.7819-.117 1.5251.43 1.6426 1.213.1564.822-.3911 1.566-1.1728 1.684-.7819.117-1.486-.43-1.6426-1.213-.1173-.822.3909-1.566 1.1728-1.684z"/><path d="m113.421 96.9072c2.111-.6655 4.105.3134 4.418 2.2315.313 1.9573-1.173 4.0323-3.284 4.6983h.039c-2.111.665-4.027-.392-4.379-2.31-.313-1.9179 1.134-3.9542 3.206-4.6198z"/><path d="m166.166 93.1494c3.167-1.1745 6.099-.0003 6.451 2.7793s-1.955 6.0673-5.122 7.2423v-.039c-3.128 1.174-5.943-.195-6.334-2.936-.352-2.7401 1.877-5.8329 5.005-7.0466z"/><path d="m29.8662 100c.3519-.0391.704.275.7822.666.0781.431-.196.783-.5478.783-.3909.039-.7041-.274-.7822-.666-.0782-.43.1959-.783.5478-.783z"/><path d="m145.795 91.1914c2.737-.9787 5.24.0788 5.592 2.4277.351 2.388-1.603 5.0896-4.301 6.0684-2.698.9395-5.123-.1961-5.514-2.5449-.352-2.3489 1.525-4.9724 4.223-5.9512z"/><path d="m67.2061 96.0459c.9772-.1956 1.8766.4308 2.0722 1.3701.1564.9396-.5088 1.8795-1.4863 2.0752h-.0391c-.9773.1956-1.8768-.4306-2.0332-1.3701-.1563-.9396.5089-1.8795 1.4864-2.0752z"/><path d="m95.6309 94.0107c1.4857-.3915 2.8933.3525 3.1279 1.7227.2343 1.3701-.782 2.8576-2.2676 3.249h-.0391c-1.4466.3915-2.8542-.3915-3.0888-1.7617s.7819-2.7792 2.2676-3.21z"/><path d="m40.4229 95.6152c.4691-.0391.8993.3135.9775.7832.0782.509-.2349.9394-.7041.9786-.469.0389-.8992-.3128-.9775-.7823-.0783-.5089.2349-.9403.7041-.9795z"/><path d="m126.363 88.8428c2.463-.822 4.77.1956 5.122 2.3486.352 2.1532-1.368 4.6202-3.832 5.4424l-.039-.0391c-2.424.8222-4.692-.3137-5.044-2.4277-.352-2.1141 1.33-4.5021 3.793-5.3242z"/><path d="m4.64746 95.5762c.2344.0002.4686.1959.46875.4697.07818.274-.07802.4696-.3125.4697h-.03906s-.43063-.2348-.46973-.4697c.00023-.2739.35254-.4697.35254-.4697z"/><path d="m78.623 90.291c1.0556-.2347 2.033.3525 2.1895 1.3311.1955.9787-.5479 1.9965-1.5645 2.2314v.0391c-1.0555.2347-2.033-.3915-2.1894-1.3701-.1562-.9787.5089-1.9575 1.5644-2.2315z"/><path d="m203.818 87.1982c2.073-.8221 3.871-.078 4.067 1.6446.195 1.7225-1.368 3.837-3.441 4.6592v.039c-2.033.783-3.831.0388-4.027-1.7226-.196-1.7617 1.329-3.798 3.401-4.6202z"/><path d="m181.493 84.2627c2.893-1.1353 5.473-.1565 5.786 2.1924.274 2.4271-1.798 5.2847-4.652 6.3808v.0391c-2.854 1.0961-5.357.0393-5.67-2.3486-.313-2.3881 1.682-5.1284 4.536-6.2637z"/><path d="m14.8516 92.0918c.2737 0 .5869.2747.5869.5879.0779.3129-.1563.5866-.4297.5869l.0391-.0391c-.2736.0392-.5867-.2348-.626-.5478-.0782-.313.1562-.5876.4297-.5879z"/><path d="m51.1748 90.8789c.5865-.1174 1.1347.2741 1.2129.8613.0778.5478-.3133 1.0954-.8604 1.1739v.039c-.5864.0783-1.1337-.3131-1.2119-.9004-.0781-.587.3123-1.0953.8594-1.1738z"/><path d="m107.947 86.7285c1.76-.548 3.441.2741 3.715 1.8399.274 1.605-.939 3.3278-2.737 3.8759l.039-.039c-1.799.548-3.441-.3131-3.715-1.8789-.274-1.566.939-3.2498 2.698-3.7979z"/><path d="m160.184 82.54c2.697-1.0569 5.2-.1179 5.552 2.1133.352 2.2315-1.604 4.9333-4.301 5.9512-2.698 1.0176-5.122-.0001-5.474-2.2315-.352-2.1922 1.525-4.815 4.223-5.833z"/><path d="m25.0957 88.2949c.3909-.0391.704.2737.7822.6651.0782.4304-.1561.7829-.5468.7832-.3519 0-.7041-.3136-.7823-.7051-.0389-.3913.1953-.743.5469-.7432z"/><path d="m140.009 81.248c2.228-.8221 4.3-.0001 4.613 1.8399.313 1.8791-1.251 4.0324-3.479 4.8545v-.0391c-2.229.8221-4.224-.0789-4.576-1.9189-.273-1.8008 1.252-3.9143 3.442-4.7364z"/><path d="m62.1621 85.5537c.7037-.1174 1.3681.3139 1.4854 1.0186.1172.7046-.352 1.4089-1.0557 1.5263v-.039c-.7036.1564-1.368-.3131-1.4854-1.0176-.1173-.6656.3519-1.3708 1.0557-1.4883z"/><path d="m90.3525 83.792c1.2512-.3523 2.4637.3139 2.6592 1.4492.1953 1.1352-.665 2.3488-1.916 2.7012-1.251.3131-2.4244-.3523-2.6201-1.4873-.1955-1.1354.6258-2.3108 1.8769-2.6631z"/><path d="m35.5742 84.2227c.4301-.0392.7821.2744.8604.705.1172.4306-.1951.822-.586.8614-.391.0391-.7821-.2745-.8603-.7051-.078-.4304.1952-.8611.5859-.8613z"/><path d="m120.732 79.0947c2.034-.7046 3.91.1173 4.223 1.8399.313 1.6834-1.095 3.641-3.128 4.3457v.039c-2.033.6654-3.87-.1957-4.183-1.9179-.274-1.7225 1.095-3.6019 3.088-4.3067z"/><path d="m.0332031 83.2051s.4305279.1958.4306639.4306c.039101.235-.313476.4307-.313476.4307-.00486-.0022-.0704999-.0359-.150391-.0869v-.751c.019753-.0143.0332031-.0234.0332031-.0234z"/><path d="m73.501 80.0342c.7427-.1565 1.446.274 1.5635.9785.1172.7438-.391 1.4489-1.1338 1.6055v-.0391c-.7426.1955-1.446-.2742-1.5635-.9785-.1173-.7047.3909-1.4098 1.1338-1.5664z"/><path d="m197.641 75.1797c2.267-.9004 4.301-.2351 4.536 1.5654.234 1.8009-1.447 4.0332-3.715 4.9336v-.0391c-2.268.9004-4.222.1562-4.496-1.6445-.196-1.7616 1.407-3.9149 3.675-4.8154z"/><path d="m102.552 76.8633c1.446-.4306 2.776.2346 3.01 1.4873.235 1.2526-.743 2.662-2.189 3.0928v.039c-1.447.4306-2.776-.2738-3.011-1.5263-.234-1.292.743-2.6622 2.19-3.0928z"/><path d="m46.249 79.6426c.5082-.0781.9775.3134 1.0557.8222.1172.5089-.235.9783-.7432 1.0567h-.039c-.4692.0783-.9775-.3133-1.0557-.8223-.0779-.5088.2741-.9783.7822-1.0566z"/><path d="m175.315 73.5352c2.542-.9786 4.849-.2348 5.162 1.7617.273 1.9966-1.525 4.4636-4.067 5.4424-2.502.9787-4.77.1558-5.083-1.8409-.312-1.9965 1.447-4.3454 3.988-5.3632z"/><path d="m10.1211 79.917c.2736.0001.5078.2347.5469.5478.0391.3132-.117.5479-.3907.5479-.2736 0-.50768-.2348-.54683-.5479-.03909-.3132.11693-.5478.39063-.5478z"/><path d="m154.28 72.6738c2.229-.8218 4.262-.117 4.574 1.6446.274 1.8007-1.29 3.915-3.518 4.7763l.039-.039c-2.229.8612-4.223.078-4.536-1.6836-.313-1.7617 1.213-3.837 3.441-4.6983z"/><path d="m20.5605 77.6855h-.039c.0062 0 .0124-.0027.0185-.0029.0068.0003.0137.0029.0205.0029z"/><path d="m20.3262 76.3154c.3517.0002.6249.3129.7031.6651.0384.3845-.1492.6912-.4893.7021-.3419-.0119-.6069-.3176-.6836-.6631-.039-.3914.157-.7041.4698-.7041z"/><path d="m134.261 71.6172c1.759-.6264 3.363-.0002 3.636 1.4092.235 1.4093-.977 3.0923-2.737 3.7187h.039c-1.72.6264-3.323-.0388-3.596-1.4482-.274-1.4093.938-3.0533 2.658-3.6797z"/><path d="m57.1182 74.5928c.6256-.1175 1.2118.313 1.3291.9394.1171.6263-.313 1.2136-.9385 1.3311h-.0391c-.5862.1171-1.1726-.3134-1.29-.9395-.0782-.6263.313-1.2135.9385-1.331z"/><path d="m85.1523 73.8486c.8992-.2348 1.7205.2347 1.877 1.0567.1173.7829-.4691 1.6448-1.3682 1.8799-.8602.2349-1.6815-.2355-1.8379-1.0577-.1563-.822.469-1.644 1.3291-1.8789z"/><path d="m115.259 69.5811c1.485-.5089 2.893.1175 3.128 1.3701.234 1.2919-.782 2.7019-2.307 3.2109-1.486.4698-2.893-.1574-3.128-1.4101-.195-1.2527.821-2.7012 2.307-3.1709z"/><path d="m30.6875 72.4785c.3517-.0389.6639.2738.7422.6651.0782.3914-.156.744-.5078.7441-.3519.0391-.665-.2745-.7432-.666-.0779-.3913.1571-.7432.5088-.7432z"/><path d="m68.3398 69.2686c.6647-.1175 1.2509.274 1.3682.9003.078.6263-.3521 1.2527-.9775 1.3702-.6645.1172-1.2508-.2743-1.3682-.9004-.1173-.6264.3129-1.2135.9775-1.3701z"/><path d="m191.189 64.2959c2.268-.9395 4.301-.3521 4.575 1.3311.273 1.6834-1.368 3.7978-3.636 4.6982h-.039c-2.229.9004-4.222.274-4.496-1.4092-.235-1.6443 1.368-3.7197 3.596-4.6201z"/><path d="m97.1953 67.0762c1.0556-.3131 2.0721.1953 2.2285 1.1347.1564.9396-.5869 1.9574-1.6426 2.2705v-.039c-1.0555.3131-2.0328-.1955-2.1894-1.1348-.1564-.9396.5478-1.9182 1.6035-2.2314z"/><path d="m169.138 63.8262c2.15-.8611 4.105-.2739 4.379 1.331.273 1.6051-1.212 3.6016-3.363 4.4629h-.039c-2.111.8221-4.027.196-4.301-1.4092-.273-1.6051 1.212-3.5626 3.324-4.3847z"/><path d="m41.2441 68.0938c.4301 0 .8213.3134.8995.7832.0779.4696-.196.8612-.626.9003-.4301.0391-.8212-.2743-.8994-.7441s.1958-.9003.6259-.9394z"/><path d="m148.298 63.2002c1.759-.6655 3.401-.1173 3.675 1.2529.234 1.3701-1.017 3.0532-2.776 3.7188-1.759.6655-3.363.0782-3.636-1.292-.235-1.3702.977-3.0142 2.737-3.6797z"/><path d="m5.38965 67.1934c.23459 0 .46967.2738.50879.5478.0391.2741-.11795.5088-.35254.5088-.23448-.0004-.5078-.274-.50781-.5479-.07817-.2739.11711-.5085.35156-.5087z"/><path d="m128.514 62.1426c1.368-.4696 2.658.0006 2.853 1.0967.196 1.0961-.743 2.3876-2.111 2.8574l-.039.039c-1.329.4697-2.619-.0388-2.815-1.1347-.195-1.0962.743-2.3886 2.112-2.8584z"/><path d="m79.874 63.3564c.7428-.1956 1.4461.235 1.5635.9395.1173.6655-.3909 1.3706-1.1338 1.5664-.7426.1955-1.446-.2351-1.5635-.9394-.1173-.7047.3909-1.4099 1.1338-1.5665z"/><path d="m52.0352 63.2783c.5474-.0783 1.0556.3133 1.1337.8613.1173.5479-.2732 1.0563-.7812 1.1348-.5473.0783-1.0564-.3125-1.1348-.8603-.0782-.548.2741-1.0574.7823-1.1358z"/><path d="m15.5557 63.8652c.2737 0 .5477.2746.6259.627.078.3522-.157.626-.4306.626-.2736-.0002-.5858-.274-.625-.626-.0391-.3523.156-.6269.4297-.627z"/><path d="m109.668 59.8721c1.212-.3913 2.385.1179 2.58 1.1748.195 1.0178-.665 2.1925-1.877 2.584-1.251.3912-2.385-.1179-2.58-1.1748-.156-1.0571.665-2.1925 1.877-2.584z"/><path d="m25.8779 60.2246c.3128 0 .626.2745.6651.666.0779.3522-.118.6651-.4307.6651l-.0391-.0391c-.3125.039-.6247-.2739-.664-.626-.0391-.3523.156-.666.4687-.666z"/><path d="m63.0615 57.9932c.6646-.1174 1.2508.3522 1.3682.9785.1173.6264-.3129 1.2526-.9385 1.3701h-.0391c-.6255.1174-1.2118-.313-1.3291-.9785-.1172-.6264.3129-1.2527.9385-1.3701z"/><path d="m184.777 54.626c1.955-.7829 3.754-.3126 3.989 1.0576.234 1.3701-1.134 3.1321-3.089 3.915h-.039c-1.916.783-3.637.2736-3.91-1.0966-.235-1.3703 1.134-3.093 3.049-3.876z"/><path d="m91.7988 56.8965c.8602-.2349 1.6425.1965 1.7989.9795.1561.7829-.4691 1.6049-1.3291 1.8398l.039.0391c-.8601.1957-1.6423-.2348-1.7988-1.0176-.1564-.7829.43-1.6058 1.29-1.8408z"/><path d="m207.885 54.9004c.777-.3111 1.515-.4081 2.115-.3154v3.8574c-.412.3367-.891.6298-1.411.8428h-.039c-1.72.7046-3.285.274-3.481-.9395-.195-1.2136 1.056-2.7406 2.816-3.4453z"/><path d="m162.999 54.5088c1.72-.7046 3.323-.2349 3.558 1.0176.234 1.2527-1.017 2.8578-2.737 3.5234-1.72.7047-3.285.1961-3.519-1.0566-.235-1.2528.978-2.8189 2.698-3.4844z"/><path d="m142.354 53.8828c1.447-.5481 2.816-.1177 3.05 1.0176.196 1.0961-.821 2.4665-2.306 3.0146v.0391c-1.447.5481-2.816.0777-3.011-1.0576-.195-1.1352.782-2.4656 2.267-3.0137z"/><path d="m36.3955 56.1533c.3518 0 .7039.3128.7432.7041.0782.3915-.1569.7832-.5088.7832l.039-.039c-.3516.0388-.7028-.274-.7812-.6651-.0782-.3914.156-.7831.5078-.7832z"/><path d="m122.766 52.6689c1.055-.3523 2.072.0392 2.228.9004.196.8613-.547 1.8399-1.641 2.2315-1.056.3915-2.072-.0392-2.229-.9004-.156-.8612.547-1.879 1.642-2.2315z"/><path d="m74.5176 52.5127c.5863-.1174 1.1726.2343 1.251.8213.1172.5872-.2739 1.1745-.8995 1.292-.5864.1174-1.1336-.2351-1.2509-.8223-.117-.5871.313-1.1736.8994-1.291z"/><path d="m.620117 53.8037s.351161.196.351563.4307c0 .2307-.264066.3861-.273438.3916v-.0391s-.352539-.1958-.352539-.4307c.000218-.1956.274414-.3525.274414-.3525z"/><path d="m47.0693 51.6113c.43-.0391.8602.3136.9385.7832.0782.4697-.1951.9002-.625.9395h-.039c-.43.0391-.8601-.3127-.9385-.7822-.0391-.4697.2342-.9011.664-.9405z"/><path d="m104.076 49.9678c.978-.3132 1.916.1172 2.072.9785.157.8613-.507 1.762-1.485 2.0752l-.039.039c-.977.2741-1.877-.1572-2.033-1.0185-.156-.8611.508-1.761 1.485-2.0742z"/><path d="m10.7461 50.79c.1955 0 .3916.1957.4307.4698.0388.2346-.1173.4304-.3125.4306v.0391c-.1564 0-.3915-.1958-.4307-.4697-.0391-.2738.1172-.4694.3125-.4698z"/><path d="m178.365 45.4258c1.642-.6653 3.128-.2736 3.363.8222.195 1.1354-.939 2.5455-2.582 3.211-1.602.626-3.088.2736-3.323-.8613-.195-1.0962.9-2.5455 2.542-3.1719z"/><path d="m156.782 45.2695c1.486-.548 2.854-.1565 3.089.9004.156 1.0961-.86 2.3883-2.346 2.9756l.039-.0391c-1.485.5872-2.854.1565-3.049-.9003-.235-1.0571.781-2.3885 2.267-2.9366z"/><path d="m201.199 45.4258c1.486-.587 2.815-.2736 3.011.7051.195.9787-.861 2.2711-2.347 2.8584-1.485.587-2.815.2735-3.01-.7051-.157-1.0179.86-2.2712 2.346-2.8584z"/><path d="m86.2471 46.3262c.7036-.1566 1.3688.196 1.4863.8613.1173.6263-.3521 1.3315-1.0557 1.4883h-.04c-.6645.1954-1.329-.196-1.4463-.8613-.0782-.6656.3519-1.3317 1.0557-1.4883z"/><path d="m58.0957 46.6006c.5083-.0783 1.0165.3132 1.0947.8613s-.2739 1.0574-.7822 1.1358c-.5081.078-1.0164-.3136-1.0947-.8614-.0782-.548.2739-1.0574.7822-1.1357z"/><path d="m20.9902 47.3447c.2346 0 .4697.2348.5088.5088 0 .274-.1179.5088-.3525.5088-.2344-.0003-.4687-.235-.5078-.5088 0-.2739.1172-.5086.3515-.5088z"/><path d="m136.333 44.7217c1.134-.3915 2.19-.039 2.347.8222.156.8221-.587 1.84-1.721 2.2706-1.134.3914-2.189.0389-2.346-.8223-.156-.8612.586-1.879 1.72-2.2705z"/><path d="m116.979 42.96c.861-.2739 1.642.0395 1.798.7441s-.43 1.4877-1.29 1.7617h-.039c-.821.2739-1.603-.0396-1.76-.7441-.117-.7047.47-1.4877 1.291-1.7617z"/><path d="m31.3906 43.5469c.2736 0 .5087.2348.5869.5478.0391.313-.1172.5876-.3906.5879h-.1396c-.2289-.0303-.4129-.2738-.4473-.5478-.0391-.3131.1171-.5877.3906-.5879z"/><path d="m69.3955 41.3154c.5083-.1173.9775.2353 1.0557.7442.078.5088-.235 1.0174-.7432 1.0957-.5081.0782-.9773-.2345-1.0557-.7432-.0782-.5089.2349-1.0184.7432-1.0967z"/><path d="m98.4463 39.75c.7427-.2348 1.485.156 1.6027.8213.117.7047-.352 1.4096-1.134 1.6445-.7428.1956-1.4852-.1567-1.6025-.8613-.1172-.6655.391-1.4088 1.1338-1.6045z"/><path d="m42.0264 39.2402c.3517-.0388.664.2357.7031.627.0781.3914-.1561.744-.4688.7441-.3519.0392-.6259-.2354-.7041-.6269-.0781-.3915.157-.7442.4698-.7442z"/><path d="m171.874 36.4219c1.486-.5873 2.854-.2346 3.05.7441.195.9787-.821 2.2702-2.307 2.8574-1.446.5481-2.776.1956-3.011-.7832-.195-.9786.822-2.2702 2.268-2.8183z"/><path d="m150.526 36.3438c1.173-.4307 2.307-.1172 2.463.7441.195.822-.625 1.8789-1.798 2.3096h-.039c-1.173.4306-2.268.1171-2.424-.7442-.196-.8221.625-1.8789 1.798-2.3095z"/><path d="m194.474 36.5c1.212-.5089 2.346-.274 2.503.5088.195.7438-.665 1.8006-1.877 2.2705v.04c-1.212.4698-2.347.2342-2.503-.5488-.195-.7829.665-1.8008 1.877-2.2705z"/><path d="m130.391 35.2471c.899-.3129 1.758.0005 1.876.705.156.7047-.469 1.5267-1.369 1.8399-.899.3131-1.72.0003-1.877-.7041-.156-.7438.47-1.5276 1.37-1.8408z"/><path d="m81.0859 35.5605c.5083-.1174.9775.1962 1.0557.7051.078.5088-.274.9783-.7822 1.0957v.0391c-.5081.1172-.9774-.1955-1.0557-.7041-.0782-.5089.274-1.0183.7822-1.1358z"/><path d="m5.58594 36.4219c.01379.0076.42961.2387.42968.4697.03844.2694-.26311.4254-.27343.4307 0 0-.39157-.2349-.43067-.4698-.03906-.2349.27442-.4306.27442-.4306z"/><path d="m52.9346 34.582c.3518-.0391.7039.2346.7822.6651.0782.3914-.196.7831-.5479.8222-.3517.039-.7029-.2347-.7812-.665-.0391-.4306.195-.7831.5469-.8223z"/><path d="m111.153 33.0156c.665-.2348 1.29.0789 1.408.627.117.548-.352 1.1744-1.017 1.3701v.0391c-.665.1955-1.29-.1181-1.407-.6661s.352-1.1744 1.016-1.3701z"/><path d="m15.8291 33.29c.1955 0 .3916.2349.4307.4698.0383.2306-.2627.4238-.2735.4306-.1954 0-.3915-.2348-.4306-.4697-.0384-.2306.2624-.4237.2734-.4307z"/><path d="m93.0898 29.2578c.5863-.1564 1.1336.1954 1.212.7041.0782.5089-.2739 1.0964-.8604 1.2139-.5863.1565-1.1334-.1563-1.2119-.7041-.0782-.509.2739-1.0573.8603-1.2139z"/><path d="m64.1172 29.5312c.3909-.0781.7431.1965.7822.5879.039.3914-.1961.744-.5478.8223v-.04c-.3519.0783-.7041-.1955-.7432-.5869-.0781-.3915.157-.7441.5088-.7833z"/><path d="m165.345 27.8086c1.173-.4306 2.307-.156 2.464.6269.195.783-.626 1.8009-1.799 2.2315h-.039c-1.173.4306-2.268.1567-2.425-.626-.196-.8221.626-1.8018 1.799-2.2324z"/><path d="m26.2295 29.6885c.2346 0 .4697.2346.5088.5478.039.2739-.1172.5085-.3516.5088-.1955 0-.4306-.2347-.4697-.5478-.0391-.2739.0781-.5086.3125-.5088z"/><path d="m187.71 27.7305c1.134-.4696 2.189-.2347 2.346.4697.156.7438-.626 1.6836-1.76 2.1143-1.134.4305-2.189.1958-2.346-.5088-.156-.7047.626-1.6446 1.76-2.0752z"/><path d="m144.349 27.2607c.899-.3131 1.759-.0385 1.916.627.156.6654-.47 1.4485-1.409 1.8008-.899.3129-1.758.0384-1.915-.627-.156-.6655.469-1.4485 1.408-1.8008z"/><path d="m210 29.4678c-.224-.1072-.38-.2691-.434-.4844-.06-.3426.108-.7367.434-1.0977z"/><path d="m124.33 25.6562c.665-.1956 1.329.0389 1.446.587.118.548-.352 1.1743-1.055 1.4091-.704.2349-1.329-.039-1.447-.5869-.117-.5872.352-1.1743 1.056-1.4092z"/><path d="m36.7871 25.7344c.2735.0002.5078.2348.5469.5478.0782.3131-.078.5868-.3516.5869-.2737 0-.5087-.2346-.5478-.5478-.0782-.3132.0789-.5869.3525-.5869z"/><path d="m75.6123 23.9727c.3909-.0783.7821.1954.8604.6259.0782.4307-.196.8221-.587.9004h-.039c-.391.0783-.7821-.1954-.8604-.626-.0782-.4306.1959-.822.626-.9003z"/><path d="m105.602 22.5635c.625-.1565 1.211.1561 1.329.7041.078.5481-.352 1.1353-.978 1.331h.039c-.625.1566-1.25-.1563-1.329-.7041-.117-.5481.313-1.1744.939-1.331z"/><path d="m47.6172 21.3105c.3128-.0391.5868.2346.665.626.0391.3524-.1569.7051-.4697.7051-.3127.039-.5859-.2355-.6641-.627-.0389-.3522.1561-.7041.4688-.7041z"/><path d="m.50293 21.3887c.011747.0066.351562.1998.351562.4306.038591.2324-.228883.3502-.234375.3526 0 0-.35224-.1959-.352539-.4307-.039101-.2349.235352-.3525.235352-.3525z"/><path d="m180.906 19.3916c.899-.3523 1.721-.1563 1.877.3916.117.548-.508 1.2921-1.407 1.6445l.039.0391c-.938.3132-1.76.1174-1.916-.4307-.117-.5872.508-1.2922 1.407-1.6445z"/><path d="m158.894 19.04c.938-.3131 1.798-.0785 1.955.5479.117.6263-.509 1.4094-1.448 1.7617v-.0391c-.938.313-1.797.0775-1.954-.5488-.117-.6263.508-1.4085 1.447-1.7217z"/><path d="m204.131 18.6484c1.016-.3915 1.995-.1956 2.151.3916.156.5873-.587 1.4094-1.642 1.8008h.039c-1.017.3914-1.994.2346-2.151-.3916-.156-.5871.547-1.4092 1.603-1.8008z"/><path d="m138.015 18.0215c.742-.2348 1.407.0008 1.524.5488s-.391 1.1744-1.095 1.4092c-.742.2347-1.407-.04-1.524-.5488-.117-.548.391-1.1744 1.095-1.4092z"/><path d="m87.498 18.0215c.4692-.1175.8994.1571.9776.6269.078.4696-.2343.9-.7031 1.0176v.0391c-.4691.0782-.8992-.1955-.9776-.6651-.0782-.4697.2341-.901.7031-1.0185z"/><path d="m10.7461 18.5303s.3132.1959.3525.4306c0 .1914-.2243.3457-.2343.3526 0 0-.3526-.2349-.3526-.4307-.0382-.1926.2263-.3478.2344-.3525z"/><path d="m58.7607 16.6514c.2735-.0389.5467.1958.586.5088.0391.3131-.1561.5877-.4297.6269l.0391.0391c-.3127 0-.5868-.2349-.626-.5479-.0391-.3132.1569-.6269.4306-.6269z"/><path d="m118.582 15.751c.547-.1566 1.094.0783 1.173.5478.078.4698-.313.9792-.86 1.1358-.548.1563-1.056-.0784-1.134-.5479-.078-.4697.274-.9791.821-1.1357z"/><path d="m21.0684 15.2031c.1955.0392.3915.2348.4306.5088.0384.2307-.2626.4238-.2734.4307-.1955 0-.4306-.1957-.4307-.4697-.039-.2739.0782-.4695.2735-.4698z"/><path d="m99.7754 11.7188c.5086-.1175.9776.1564 1.0556.6259.078.4698-.235.9402-.743 1.0576-.5082.1172-.9776-.1572-1.0558-.6269-.117-.4696.2351-.9392.7432-1.0566z"/><path d="m174.104 11.0137c.703-.2347 1.367-.0779 1.485.3525.117.4306-.391.9789-1.095 1.2529-.704.2349-1.368.0782-1.485-.3525-.117-.4306.391-.9789 1.095-1.2529z"/><path d="m70.1387 11.4053c.3125-.078.6247.1959.7031.5478.0391.3523-.1561.7049-.5078.7442-.3519.0783-.665-.1956-.7041-.5479s.1569-.7441.5088-.7441z"/><path d="m196.938 10.7402c.859-.3129 1.602-.1568 1.758.3125.118.4698-.43 1.097-1.29 1.4102h-.039c-.821.3132-1.603.1563-1.721-.3135-.117-.4698.431-1.096 1.292-1.4092z"/><path d="m31.626 11.5625c.1954.0003.4297.2349.4687.5088.039.2738-.0781.5086-.3125.5088-.1954 0-.4305-.2348-.4697-.5088-.0391-.2741.118-.5088.3135-.5088z"/><path d="m152.286 10.2314c.743-.23473 1.407-.0391 1.525.4698.117.4697-.392 1.0962-1.095 1.331-.743.2348-1.407.0389-1.525-.4697-.117-.4698.352-1.0961 1.095-1.3311z"/><path d="m132.032 8.54785c.587-.1566 1.134.07816 1.212.50879.078.43065-.313.9391-.86 1.09566v-.039c-.587.1955-1.134-.0392-1.212-.46975-.078-.43054.274-.93908.86-1.0957z"/><path d="m42.3779 7.45117c.2737.00006.4687.27472.5469.58789.0781.31308-.078.58692-.3516.58692-.2344-.00008-.4685-.27396-.5468-.58692-.0782-.3132.1169-.58789.3515-.58789z"/><path d="m81.9336 5.83594c.329-.03337.6434.22812.7168.55859.039.35231-.196.74407-.5479.7832-.3518.07819-.704-.1574-.7822-.54882-.073-.33012.163-.69483.4824-.77149z"/><path d="m112.6 5.29785c.43-.11739.821.07857.899.46973.039.39142-.234.78386-.664.90137-.43.11744-.821-.07921-.899-.47071-.078-.39126.234-.78288.664-.90039z"/><path d="m189.821 2.75391c.704-.23478 1.329-.11783 1.447.27343.078.39148-.352.90085-1.056 1.13575v.03906c-.665.23484-1.329.078-1.446-.31348-.118-.39148.352-.89989 1.055-1.13476z"/><path d="m53.4434 3.14551c.1954.00029.4296.19588.4687.46972.0389.27376-.0782.5086-.3125.50879-.2345 0-.4695-.19583-.5088-.46972 0-.27404.118-.50879.3526-.50879z"/><path d="m167.144 2.51855c.586-.19568 1.133-.03884 1.211.31348.118.35232-.273.82185-.86 1.01758-.586.19565-1.134.03883-1.212-.31348-.117-.3523.274-.82189.861-1.01758z"/><path d="m5.58594 3.2627h-.04004s.00494-.00767.01269-.02051c.01753.01159.02735.02051.02735.02051z"/><path d="m5.46777 2.59668s.27434.19595.27442.35254c-.06295.09455-.15157.23992-.1836.29297-.07007-.04636-.24706-.17546-.24707-.33203-.03837-.19227.14959-.30941.15625-.31348z"/><path d="m146.03 1.1875c.587-.195531 1.173.00012 1.251.43066.078.43064-.313.94008-.899 1.09668h.039c-.586.19562-1.173-.00038-1.251-.43066-.117-.43065.274-.90092.86-1.09668z"/><path d="m94.5596 0c.1466.0981358.2506.25174.289.443359.0391.391412-.1951.782901-.5859.861331h-.0391c-.391.07829-.7431-.15636-.8213-.547854-.0298-.299095.1006-.597431.3379-.756836z"/><path d="m16.1426.0126953c.0391.2348937-.2354.3916017-.2354.3916017-.0136-.007684-.3226-.186195-.3467-.404297h.5801c.0003.00424188.002.00842657.002.0126953z"/></g></svg>